<svg version="1.1" id="brand_white_jal" xmlns="http://www.w3.org/2000/svg" xmlns:xlink="http://www.w3.org/1999/xlink" x="0px" y="0px"
viewBox="0 0 118.6 46.3" style="enable-background:new 0 0 118.6 46.3;" xml:space="preserve">
<style type="text/css">
.st0{fill:#1A1A1A;}
.st1{fill:url(#SVGID_1_);}
.st2{fill:url(#SVGID_2_);}
.st3{fill:url(#SVGID_3_);}
.st4{fill:url(#SVGID_4_);}
.st5{fill:url(#SVGID_5_);}
.st6{fill:url(#SVGID_6_);}
.st7{fill:url(#SVGID_7_);}
.st8{fill:url(#SVGID_8_);}
.st9{fill:url(#SVGID_9_);}
.st10{fill:url(#SVGID_10_);}
.st11{fill:#414042;}
.st12{fill:#FFFFFF;}
.st13{fill:#D72435;}
.st14{fill:url(#SVGID_11_);}
.st15{fill:url(#SVGID_12_);}
.st16{fill:url(#SVGID_13_);}
.st17{fill:url(#SVGID_14_);}
.st18{fill:url(#SVGID_15_);}
.st19{fill:url(#SVGID_16_);}
.st20{fill:url(#SVGID_17_);}
.st21{fill:url(#SVGID_18_);}
.st22{fill:url(#SVGID_19_);}
.st23{fill:url(#SVGID_20_);}
.st24{fill:#E5E5E5;}
.st25{fill:#871C56;}
.st26{fill:#8E1336;}
.st27{fill:#00698E;}
.st28{fill:#4597CA;}
.st29{fill:#926C94;}
.st30{fill:#EC80A7;}
.st31{fill:#00A19C;}
.st32{fill:#00AE41;}
.st33{fill:#A2CE5E;}
.st34{fill:#E99281;}
.st35{fill:#D0D2D3;}
.st36{clip-path:url(#SVGID_22_);}
.st37{fill:url(#SVGID_23_);}
.st38{fill:#DCDCDC;}
.st39{fill:#D0D0D0;}
.st40{fill:#B6B6B6;}
.st41{fill:#A7A7A7;}
.st42{fill:#ABABAB;}
.st43{fill:#CBCBCB;}
.st44{fill:#E7E7E7;}
.st45{fill:#BABABA;}
.st46{fill:#C0C0C0;}
.st47{fill:#707070;}
.st48{fill:#8A8A8A;}
.st49{fill:#959595;}
.st50{fill:#B9B9B9;}
.st51{fill:#DEDEDE;}
.st52{fill:#9C9C9C;}
.st53{fill:#7D7D7D;}
.st54{fill:#A9A9A9;}
.st55{fill:#AAAAAA;}
.st56{fill:#B8B8B8;}
.st57{fill:#9E9E9E;}
.st58{fill:#AFAFAF;}
.st59{fill:#BDBDBD;}
.st60{fill:#898989;}
.st61{fill:#989898;}
.st62{fill:#A3A3A3;}
.st63{fill:#929292;}
.st64{fill:#AEAEAE;}
.st65{fill:#F3F3F3;}
.st66{fill:#C9C9C9;}
.st67{fill:#A6A6A6;}
.st68{fill:#B4B4B4;}
.st69{fill:#797979;}
.st70{fill:#8D8D8D;}
.st71{fill:#E8E8E8;}
.st72{fill:#D9D9D9;}
.st73{fill:#BBBBBB;}
.st74{fill:#B2B2B2;}
.st75{fill:#616161;}
.st76{fill:#A8A8A8;}
.st77{fill:#E4E4E4;}
.st78{fill:#9B9B9B;}
.st79{fill:#828282;}
.st80{fill:#C4C4C4;}
.st81{fill:#9F9F9F;}
.st82{fill:#656565;}
.st83{fill:#ACACAC;}
.st84{fill:#8F8F8F;}
.st85{fill:#6C6C6C;}
.st86{fill:#B5B5B5;}
.st87{fill:#858585;}
.st88{fill:#A5A5A5;}
.st89{fill:#757575;}
.st90{fill:#CCCCCC;}
.st91{fill:#F7F7F7;}
.st92{fill:#232323;}
.st93{fill:#2F2F2F;}
.st94{fill:#494949;}
.st95{fill:#585858;}
.st96{fill:#545454;}
.st97{fill:#343434;}
.st98{fill:#181818;}
.st99{fill:#454545;}
.st100{fill:#3F3F3F;}
.st101{fill:#6A6A6A;}
.st102{fill:#464646;}
.st103{fill:#212121;}
.st104{fill:#636363;}
.st105{fill:#565656;}
.st106{fill:#555555;}
.st107{fill:#474747;}
.st108{fill:#505050;}
.st109{fill:#424242;}
.st110{fill:#767676;}
.st111{fill:#676767;}
.st112{fill:#5C5C5C;}
.st113{fill:#6D6D6D;}
.st114{fill:#515151;}
.st115{fill:#0C0C0C;}
.st116{fill:#363636;}
.st117{fill:#595959;}
.st118{fill:#4B4B4B;}
.st119{fill:#868686;}
.st120{fill:#727272;}
.st121{fill:#171717;}
.st122{fill:#262626;}
.st123{fill:#444444;}
.st124{fill:#4D4D4D;}
.st125{fill:#575757;}
.st126{fill:#1B1B1B;}
.st127{fill:#646464;}
.st128{fill:#3B3B3B;}
.st129{fill:#606060;}
.st130{fill:#9A9A9A;}
.st131{fill:#535353;}
.st132{fill:#939393;}
.st133{fill:#4A4A4A;}
.st134{fill:#7A7A7A;}
.st135{fill:#5A5A5A;}
.st136{fill:#333333;}
.st137{fill:#080808;}
.st138{clip-path:url(#SVGID_25_);fill:none;stroke:#00A19C;stroke-width:2;stroke-miterlimit:10;}
.st139{clip-path:url(#SVGID_27_);fill:#00A19C;}
.st140{fill:#E5E6E7;}
.st141{clip-path:url(#SVGID_29_);}
.st142{fill:url(#SVGID_30_);}
.st143{clip-path:url(#SVGID_32_);fill:none;stroke:#00A19C;stroke-width:2;stroke-miterlimit:10;}
.st144{clip-path:url(#SVGID_34_);fill:#00A19C;}
.st145{fill:#0BA69D;}
.st146{fill:#DB3141;}
.st147{fill:#001618;}
.st148{fill:none;stroke:#FFFFFF;stroke-miterlimit:10;}
.st149{fill:#EAF5F1;}
.st150{fill:none;}
.st151{clip-path:url(#SVGID_36_);}
.st152{fill:url(#SVGID_37_);}
.st153{clip-path:url(#SVGID_39_);fill:none;stroke:#D72435;stroke-width:2;stroke-miterlimit:10;}
.st154{clip-path:url(#SVGID_41_);fill:#D72435;}
.st155{clip-path:url(#SVGID_43_);}
.st156{fill:url(#SVGID_44_);}
.st157{clip-path:url(#SVGID_46_);fill:none;stroke:#D72435;stroke-width:2;stroke-miterlimit:10;}
.st158{clip-path:url(#SVGID_48_);fill:#D72435;}
.st159{clip-path:url(#SVGID_50_);}
.st160{fill:url(#SVGID_51_);}
.st161{clip-path:url(#SVGID_53_);fill:none;stroke:#D72435;stroke-width:2;stroke-miterlimit:10;}
.st162{clip-path:url(#SVGID_55_);fill:#D72435;}
.st163{fill:#F6A831;}
.st164{clip-path:url(#SVGID_57_);}
.st165{fill:url(#SVGID_58_);}
.st166{clip-path:url(#SVGID_60_);fill:none;stroke:#D72435;stroke-width:2;stroke-miterlimit:10;}
.st167{clip-path:url(#SVGID_62_);fill:#D72435;}
.st168{clip-path:url(#SVGID_64_);}
.st169{fill:url(#SVGID_65_);}
.st170{clip-path:url(#SVGID_67_);fill:none;stroke:#D72435;stroke-width:2;stroke-miterlimit:10;}
.st171{clip-path:url(#SVGID_69_);fill:#D72435;}
.st172{clip-path:url(#SVGID_71_);}
.st173{fill:url(#SVGID_72_);}
.st174{clip-path:url(#SVGID_74_);fill:none;stroke:#D72435;stroke-width:2;stroke-miterlimit:10;}
.st175{clip-path:url(#SVGID_76_);fill:#D72435;}
.st176{clip-path:url(#SVGID_78_);}
.st177{fill:url(#SVGID_79_);}
.st178{clip-path:url(#SVGID_81_);fill:none;stroke:#D72435;stroke-width:2;stroke-miterlimit:10;}
.st179{clip-path:url(#SVGID_83_);fill:#D72435;}
.st180{clip-path:url(#SVGID_85_);}
.st181{fill:url(#SVGID_86_);}
.st182{clip-path:url(#SVGID_88_);fill:none;stroke:#D72435;stroke-width:2;stroke-miterlimit:10;}
.st183{clip-path:url(#SVGID_90_);fill:#D72435;}
.st184{clip-path:url(#SVGID_92_);}
.st185{fill:url(#SVGID_93_);}
.st186{clip-path:url(#SVGID_95_);fill:none;stroke:#F6A831;stroke-width:2;stroke-miterlimit:10;}
.st187{clip-path:url(#SVGID_97_);fill:#F6A831;}
.st188{fill:#000A19;}
.st189{clip-path:url(#SVGID_99_);}
.st190{fill:url(#SVGID_100_);}
.st191{clip-path:url(#SVGID_102_);fill:none;stroke:#D72435;stroke-width:2;stroke-miterlimit:10;}
.st192{clip-path:url(#SVGID_104_);fill:#D72435;}
.st193{fill:#C32648;}
.st194{fill:#88123E;}
.st195{fill:#D42427;}
.st196{clip-path:url(#SVGID_106_);fill:#F8A931;}
.st197{clip-path:url(#SVGID_108_);fill:#0F6E90;}
.st198{clip-path:url(#SVGID_110_);fill:#D42427;}
.st199{fill:#F8A931;}
.st200{clip-path:url(#SVGID_112_);fill:#0F6E90;}
.st201{clip-path:url(#SVGID_114_);fill:#F8A931;}
.st202{fill:#A6A8AB;}
.st203{clip-path:url(#SVGID_116_);fill:#F8A931;}
.st204{clip-path:url(#SVGID_118_);fill:#0F6E90;}
.st205{clip-path:url(#SVGID_120_);fill:#D42427;}
.st206{clip-path:url(#SVGID_122_);fill:#0F6E90;}
.st207{clip-path:url(#SVGID_124_);fill:#F8A931;}
.st208{fill:#7B7388;}
.st209{clip-path:url(#SVGID_126_);}
.st210{fill:url(#SVGID_127_);}
.st211{clip-path:url(#SVGID_129_);fill:none;stroke:#D72435;stroke-width:2;stroke-miterlimit:10;}
.st212{clip-path:url(#SVGID_131_);fill:#D72435;}
.st213{fill:#818487;}
.st214{fill:#FFF;}
.st215{clip-path:url(#SVGID_133_);}
.st216{fill:url(#SVGID_134_);}
.st217{clip-path:url(#SVGID_136_);fill:none;stroke:#D72435;stroke-width:2;stroke-miterlimit:10;}
.st218{clip-path:url(#SVGID_138_);fill:#D72435;}
.st219{fill:#6E7074;}
.st220{clip-path:url(#SVGID_140_);}
.st221{fill:url(#SVGID_141_);}
.st222{clip-path:url(#SVGID_143_);fill:none;stroke:#5C5C5C;stroke-width:2;stroke-miterlimit:10;}
.st223{clip-path:url(#SVGID_145_);fill:#5C5C5C;}
.st224{fill:#1B1D20;}
.st225{clip-path:url(#SVGID_147_);}
.st226{fill:url(#SVGID_148_);}
.st227{clip-path:url(#SVGID_150_);fill:none;stroke:#D72435;stroke-width:2;stroke-miterlimit:10;}
.st228{clip-path:url(#SVGID_152_);fill:#D72435;}
.st229{fill:#F25757;}
.st230{fill:#D12A2E;}
.st231{fill:#F7B538;}
.st232{fill:none;stroke:#61E8E1;stroke-linecap:round;stroke-miterlimit:10;}
.st233{fill:#61E8E1;}
.st234{fill:#2F3238;}
.st235{clip-path:url(#SVGID_154_);}
.st236{fill:url(#SVGID_155_);}
.st237{clip-path:url(#SVGID_157_);fill:none;stroke:#D72435;stroke-width:2;stroke-miterlimit:10;}
.st238{clip-path:url(#SVGID_159_);fill:#D72435;}
.st239{clip-path:url(#SVGID_161_);}
.st250{fill:#EBEBEB;}
.st251{clip-path:url(#SVGID_180_);}
.st252{clip-path:url(#SVGID_182_);}
.st253{fill:#00A29D;}
.st254{fill:#00A39E;}
.st255{fill:#00A39D;}
.st256{fill:#00C4C1;}
.st257{fill:#00ADA7;}
.st258{fill:#00C2BF;}
.st259{fill:#00A6A1;}
.st260{fill:#00D4D1;}
.st261{fill:#00C1BE;}
.st262{fill:#00DEDC;}
.st263{fill:#00A7A3;}
.st264{fill:#00B6B3;}
.st265{fill:#00B3AF;}
.st266{fill:#00B5B1;}
.st267{fill:#00AAA6;}
.st268{fill:#03B5B1;}
.st269{fill:#00BAB7;}
.st270{fill:#00A5A0;}
.st271{fill:#00B1AD;}
.st272{fill:#00A49F;}
.st273{fill:#00ABA7;}
.st274{fill:#00A7A2;}
.st275{fill:#00A8A3;}
.st276{fill:#00BDBA;}
.st277{fill:#00CDCA;}
.st278{fill:#00D0CE;}
.st279{fill:#00ABA6;}
.st280{fill:#00ACA7;}
.st281{fill:#00E2E1;}
.st282{fill:#00AEA9;}
.st283{fill:#00ACA8;}
.st284{fill:#00B8B4;}
.st285{fill:#00D6D4;}
.st286{fill:#00AAA5;}
.st287{fill:#00B7B2;}
.st288{fill:#00C8C5;}
.st289{fill:#00AEA8;}
.st290{fill:#00ACA6;}
.st291{fill:#00C3C0;}
.st292{fill:#00B4B0;}
</style>
<g>
<g>
<path class="st213" d="M104.6,36l2.4,3.4l2.5-3.4h1.6l-3.3,4.5c1,1.3,2.4,3.3,3.3,4.5h-1.6l-2.5-3.4l-2.4,3.4h-1.6l3.3-4.5
c-1-1.3-2.4-3.4-3.3-4.5H104.6L104.6,36z"/>
<polygon class="st213" points="88.1,45 86.8,45 86.8,36 87.8,36 90.8,40.4 93.8,36 94.8,36 94.8,45 93.5,45 93.5,38.7 91.1,42.2 
90.4,42.2 88.1,38.7 88.1,45 		"/>
<path class="st213" d="M78.5,45h-3.3c-1.8,0-3.3-1.5-3.3-3.3v0c0-1.8,1.5-3.3,3.3-3.3h0c1.8,0,3.3,1.5,3.3,3.3V45L78.5,45z"/>
<path class="st213" d="M46.3,38.1c-0.6-0.6-1.4-1-2.3-1c-0.9,0-1.7,0.4-2.3,1c-0.6,0.6-1,1.4-1,2.3c0,0.9,0.4,1.7,1,2.3
c0.6,0.6,1.4,1,2.3,1c0.9,0,1.7-0.4,2.3-1c0.6-0.6,1-1.4,1-2.3C47.3,39.5,46.9,38.7,46.3,38.1L46.3,38.1z M40.8,37.2
c0.8-0.8,2-1.4,3.2-1.4c1.3,0,2.4,0.5,3.3,1.4c0.8,0.8,1.3,2,1.3,3.3c0,1.3-0.5,2.4-1.3,3.3c-0.8,0.8-2,1.4-3.3,1.4
c-1.3,0-2.4-0.5-3.2-1.4c-0.8-0.8-1.3-2-1.3-3.3C39.4,39.1,40,38,40.8,37.2L40.8,37.2z"/>
<path class="st213" d="M58.2,43.8h2.8c0.9,0,1.3-0.7,1.3-1.4c0-0.7-0.4-1.4-1.3-1.4h-2.8V43.8L58.2,43.8z M58.2,39.6h2.4
c1.4,0,1.4-2.3,0-2.3h-2.5V39.6L58.2,39.6z M60.6,36c1.1,0,1.9,0.6,2.2,1.5c0.4,0.9,0.2,1.9-0.7,2.6c1,0.4,1.4,1.4,1.4,2.2
c0,1.4-0.9,2.7-2.6,2.7h-4.1v-9H60.6L60.6,36z"/>
<g id="XMLID_36_">
<g>
<path class="st213" d="M14.1,41.7V45h-3.3c-1.8,0-3.3-1.5-3.3-3.3c0-0.9,0.4-1.8,1-2.4c0.6-0.6,1.4-1,2.4-1s1.8,0.4,2.4,1
C13.8,39.9,14.1,40.8,14.1,41.7z"/>
</g>
</g>
<path class="st213" d="M29.7,39.2c-0.4-1.5-1.7-2-2.9-2c-1.8,0-3.1,1.4-3.1,3.3c0,1.9,1.4,3.3,3.1,3.3c1.1,0,2.3-0.5,2.8-1.8h-3.3
v-1.3h4.9c-0.1,0.8-0.1,1.3-0.2,1.6v0c-0.6,1.7-2.5,2.8-4.1,2.8c-2.5,0-4.4-1.9-4.4-4.6c0-2.7,1.9-4.6,4.4-4.6
c1.7,0,3.8,0.9,4.3,3.3H29.7L29.7,39.2z"/>
</g>
<path class="st214" d="M15.9,1.8l-3.9,3.9L15.9,1.8l-0.2,0h-1.5H14L8.7,7h0.2h1.5h0.2l1.1-1L10.6,7h1.1H13h0.7v0.7v6.5v2v2v3.2
c0,2.2-0.9,3.4-2,3.9c-0.4,0.2-0.7,0.3-1.1,0.3c-0.2,0-0.3,0-0.5,0c-1.8,0-3.6-1-3.8-4.1c0-0.1,0-0.2,0-0.3c0-0.1,0-0.1,0-0.2v-1.5
v-1.7l-1.7,1.7l-3.4,3.4h0c0,0.1,0,0.2,0.1,0.4c0,0.1,0,0.3,0,0.4c0,0.1,0.1,0.2,0.1,0.4c0,0.1,0,0.2,0.1,0.3l0,0
c0.1,0.5,0.3,1,0.5,1.5c0.1,0.3,0.2,0.5,0.4,0.8c1.2,2.1,3.3,3.4,5.5,3.9C8.5,31,9.2,31,10,31c0.6,0,1.2,0,1.7-0.1c1-0.2,2-0.5,3-1
c1.2-0.7,2.3-1.6,3.1-3c0.6-1,0.9-2.1,1.1-3.4c0-0.5,0.1-0.9,0.1-1.4v-2.4v-3.3V13V9.1V5.8V2.4V1.8h-0.6H15.9z M8.3,7.1l5.2-5.2
h-0.6L7.7,7.1H8.3z M12.3,1.8H9.8L4.5,7.1h2.5L12.3,1.8z M41.8,1.3l-0.3,0.3V4l2.8-2.8H41.8z M96.5,13.8l3.1-3.1
C98.3,11.6,97.3,12.6,96.5,13.8z M100.7,10.1L95.8,15c-0.2,0.5-0.4,1-0.6,1.5l7.1-7.1C101.7,9.6,101.2,9.8,100.7,10.1z M59,14.3
l5.1-5.1C61.3,9.9,59.3,11.6,59,14.3z M38.5,30v-1.9L36.6,30H38.5z M51.2,1.3v2.7l2.7-2.7H51.2z M66.3,8.9c-0.3,0-0.7,0-1,0.1
l-6.3,6.3c0,0.3,0,0.6,0.1,0.8L66.3,8.9z M52.7,4.4l-1.3,1.3l-0.1,0.1v1.9v0.8v1.5L54,7.3l0.8-0.8l0.8-0.8l0.8-0.8V3.4V2.7V1.3
h-0.5L54,3.1L52.7,4.4z M6.2,16.6l-5.1,5.1v0.8l5.1-5.1V16.6z M117.1,16.8c0-0.1-0.1-0.3-0.1-0.4c-0.1-0.3-0.2-0.6-0.3-0.8
c-0.8-2-2.3-3.7-4.1-4.8c-0.5-0.3-1-0.6-1.6-0.8c-1.2-0.5-2.6-0.9-4.1-1c-0.3,0-0.5,0-0.8,0c-0.3,0-0.7,0-1,0.1l-2.8,2.8L100,14
l2.3-2.3l2.8-2.8c-0.3,0-0.6,0.1-1,0.1c-0.3,0-0.6,0.1-0.9,0.2c-0.1,0-0.2,0-0.2,0c0,0,0,0,0,0l-1.6,1.6v0l-5.1,5.1v0l-0.2,0.2v0
l-0.2,0.2L95,17.2c0,0.1,0,0.3-0.1,0.4c0,0,0,0.1,0,0.1v0c0,0,0,0,0,0c0,0.1,0,0.3-0.1,0.4c0,0.2,0,0.3,0,0.5c0,0.1,0,0.3,0,0.5
l0,0c0,0.2,0,0.4,0,0.6c0,1.1,0.1,2.2,0.4,3.1c0.3,0.9,0.6,1.7,1.1,2.5v0c0.2,0.3,0.4,0.6,0.7,0.9c0,0,0,0,0,0
c0.2,0.2,0.4,0.4,0.6,0.7c1.5,1.7,3.6,2.8,6,3.3c0.8,0.2,1.6,0.2,2.5,0.2c0.3,0,0.5,0,0.8,0c0.7-0.1,1.5-0.1,2.2-0.3
c0.3-0.1,0.5-0.2,0.8-0.2c1.9-0.6,3.5-1.6,4.8-3c0.5-0.5,0.9-1,1.2-1.6c0.6-1,1.1-2.1,1.3-3.3c0.2-0.7,0.2-1.5,0.2-2.3
C117.5,18.6,117.3,17.7,117.1,16.8z M97,15.6L97,15.6l-0.7,0.7L97,15.6z M95.6,17l0.7-0.7v0L95.6,17z M97,17l-0.7,0.7L97,17
l0.5-0.5L97,17z M112,21.5c0,0.2-0.1,0.3-0.1,0.5c-0.7,1.9-2.1,3.3-3.8,3.8c-0.4,0.1-0.7,0.2-1.1,0.2c-0.3,0-0.5,0-0.8,0
c0,0,0,0-0.1,0c-2.4,0-4.4-1.3-5.4-3.5c-0.4-0.8-0.6-1.6-0.6-2.6c0-0.1,0-0.2,0-0.4c0-1.2,0.3-2.4,0.8-3.3c0.7-1.3,1.9-2.3,3.3-2.8
c0.6-0.2,1.3-0.3,2-0.3c0.3,0,0.5,0,0.8,0c0.8,0.1,1.6,0.4,2.3,0.8c0.9,0.5,1.7,1.3,2.2,2.3c0.5,0.9,0.8,2.1,0.8,3.3
C112.2,20.3,112.2,20.9,112,21.5z M71.8,19.7c-2.2-1.6-5.4-2.3-6.8-3.4c-0.1,0-0.1-0.1-0.2-0.1c0,0-0.1-0.1-0.1-0.1
c-0.3-0.3-0.4-0.6-0.4-1c0-0.5,0.2-0.8,0.4-1.1c0.5-0.5,1.3-0.8,2.2-0.8c0.3,0,0.6,0,0.9,0.1c1.3,0.1,2.3,0.5,3.1,0.9l1.2-1.2
l1.9-1.9c0,0-0.9-0.8-2.5-1.5c-0.7-0.3-1.6-0.6-2.7-0.7c-0.1,0-0.2,0-0.3,0c-0.1,0-0.2,0-0.2,0c-0.2,0-0.5-0.1-0.7-0.1
c-0.2,0-0.3,0-0.5,0l-2.2,2.2L62,13.7l-2.6,2.6l-0.2,0.2c0,0,0,0.1,0,0.1c0.1,0.2,0.1,0.4,0.2,0.6c0.1,0.2,0.2,0.4,0.3,0.6l1.5-1.5
l-1.5,1.5c0.4,0.7,1,1.2,1.6,1.7c1,0.7,2.1,1.2,3.2,1.7c1.6,0.7,3,1.2,3.8,1.9c0.4,0.3,0.6,0.7,0.6,1.1c0,1.2-1.3,1.9-2.7,1.9
c-0.3,0-0.5,0-0.8,0c-0.3,0-0.6-0.1-0.9-0.2c-0.6-0.1-1-0.3-1.5-0.5c-0.1,0-0.2-0.1-0.2-0.1c-0.2-0.1-0.4-0.2-0.6-0.3c0,0,0,0,0,0
c-0.2-0.1-0.4-0.2-0.5-0.3l-2.3,2.3l-0.8,0.8c0.2,0.2,0.6,0.4,1,0.7c0,0,0,0,0,0v0c0,0,0,0,0,0v0c0.6,0.4,1.3,0.8,2.2,1.1
c0.8,0.3,1.7,0.6,2.7,0.7c0.5,0.1,1.1,0.1,1.7,0.1c0.6,0,1.2,0,1.7-0.1c2.6-0.4,4.5-1.7,5.5-3.4c0.2-0.4,0.4-0.8,0.5-1.2
c0.1-0.5,0.2-0.9,0.2-1.5C74.2,22.2,73.2,20.8,71.8,19.7z M64.6,13l3.6-3.6L64.6,13l-1.7,1.7L64.6,13z M60.7,23.9l-0.5,0.5
l-1.8,2.7l2.7-2.7C61,24.2,60.8,24,60.7,23.9z M93.2,24.8l-0.7-1.3c0,0-2.5,2.5-5.9,2.6c0,0-0.1,0-0.1,0c-0.2,0-0.5,0-0.7,0
c-0.4,0-0.7-0.1-1-0.2c-2.2-0.6-3.7-2.1-4.4-4.1c0-0.1-0.1-0.2-0.1-0.3c-0.1-0.6-0.2-1.2-0.2-1.8c0-1.2,0.3-2.3,0.8-3.3
c0.6-1,1.4-1.9,2.5-2.4c0.7-0.4,1.5-0.6,2.4-0.7c0.2,0,0.3,0,0.5,0c0.8,0,1.6,0.1,2.2,0.4c0.5,0.2,1,0.4,1.4,0.6c0,0,0,0,0,0
c0.2,0.1,0.4,0.2,0.6,0.3c0,0,0,0,0.1,0c0.1,0.1,0.3,0.2,0.4,0.3c0,0,0,0,0,0l1.9-1.9L92,12l0,0l0.9,0.9v0l1-1c0,0,0,0-0.1-0.1
c0,0-0.1-0.1-0.2-0.2c-0.1-0.1-0.4-0.4-0.7-0.6c0,0,0,0,0,0c-0.3-0.2-0.7-0.5-1.2-0.8c-0.7-0.4-1.5-0.7-2.5-1c-1-0.2-2-0.4-3.3-0.4
c-0.1,0-0.2,0-0.2,0c-1.4,0-2.6,0.2-3.7,0.6c-0.8,0.2-1.5,0.6-2.1,1c-2.2,1.3-3.8,3.3-4.5,5.7c0,0.1,0,0.1-0.1,0.2c0,0,0,0.1,0,0.1
c0,0.1-0.1,0.2-0.1,0.3c-0.2,0.9-0.4,1.9-0.4,2.9c0,1,0.1,2,0.4,2.9c0.3,1.1,0.7,2.1,1.3,3c0.3,0.5,0.6,0.9,1,1.3
c1.3,1.4,3,2.5,5.2,3.1c1,0.3,2,0.4,3.1,0.4c0.1,0,0.2,0,0.2,0c0.6,0,1.1,0,1.7-0.1c0.5-0.1,0.9-0.1,1.3-0.2c3.6-0.8,5.5-3,5.5-3
l-0.1-0.2L93.2,24.8z M91.7,15.5l1.6-2.4l-2,2C91.5,15.3,91.7,15.5,91.7,15.5z M54.7,1.3l-3.5,3.5v0.6l4.1-4.1H54.7z M45.3,1.3
l-3.8,3.8v0.6l4.4-4.4H45.3z M54,11.1l-2.6,2.6l-0.1,0.2v1.9l1.1-1.1l-1.1,1.1v0.6v2.8v5v2.8v2.8V30H54h2.3h0.1v-0.1v-0.6v-2.4
v-2.4v-5.8v-2.4V14v-3.3l-1.2,1.2l1.2-1.2V9.3l0-0.6L54,11.1z M37.1,12.1c-0.9-1.4-2.4-2.4-4.2-2.9C32,9,31,8.9,29.9,8.9
c-0.1,0-0.1,0-0.1,0c-1.4,0-2.7,0.2-3.8,0.6c-1.8,0.5-3,1.2-3.7,1.6c-0.3,0.2-0.5,0.3-0.5,0.3l0.5,0.9l1.4,2.6l0.1,0.1
c0,0,2.7-2,5.7-2c0.1,0,0.2,0,0.2,0c1.4,0,2.6,0.5,3.2,1.5c0.2,0.3,0.4,0.7,0.4,1.2c0,0.1,0,0.3,0,0.4c0,0.1,0,0.3,0,0.4v0.1V17
h-0.5h-0.2c-0.2,0-0.3,0-0.5,0c-2,0-5.2,0.2-7.8,1.4c-0.8,0.4-1.5,0.8-2.1,1.4c-1.1,1-1.8,2.3-1.8,4.2c0,0.4,0,0.8,0.1,1.2
c0.1,0.6,0.3,1.2,0.6,1.7c0.1,0.2,0.3,0.5,0.4,0.7c0.2,0.3,0.4,0.6,0.7,0.9c0.9,0.9,2.1,1.5,3.3,1.8c0.6,0.1,1.2,0.2,1.8,0.2
c0.8,0,1.5-0.1,2.1-0.3c1.6-0.4,2.6-1.3,3.3-2c0.2-0.3,0.4-0.5,0.5-0.7c0.2-0.2,0.3-0.4,0.3-0.5c0,0,0-0.1,0-0.1h0.1c0,0,0,0,0,0.1
c0,0.1,0,0.5-0.1,0.9c0,0.1,0,0.3,0,0.5V30h0v-0.5l0.4-0.4l-0.4,0.4V30h1.4l0.4-0.4l2.7-2.7l0.3-0.3v-1.9v-2.8v-0.6v-4.2
c0-0.2,0-0.5,0-0.7C38.3,14.7,37.9,13.2,37.1,12.1z M33.4,21c0,0.8-0.2,1.6-0.5,2.4c-0.3,0.8-0.9,1.5-1.5,2c-0.7,0.6-1.6,1-2.6,1
c-2.1,0-3.1-1.3-3.1-2.7c0-0.1,0-0.2,0-0.3c0.1-1,0.7-1.7,1.7-2.1c0.2-0.1,0.5-0.2,0.8-0.3c1.4-0.5,3.1-0.5,4.4-0.5h0.3h0.5V21z
M46.7,23.7c0-0.3-0.1-0.6-0.1-0.9v-3.3v-3.2v-3.2V8.9V5.8V3.1l-1.3,1.3l1.3-1.3V2.6V1.3l-3.2,3.2l-0.7,0.7l-0.7,0.7l-0.6,0.6v1.3
v0.5v0v6.2v1.9v1.9v5.3c0,0.6,0,1.1,0.1,1.5c0.1,0.7,0.2,1.3,0.4,1.8c0.1,0.3,0.3,0.6,0.5,0.9c0.3,0.4,0.6,0.8,0.9,1.1
c0.9,0.8,2.1,1.1,3.2,1.2c0.4,0,0.8,0.1,1.2,0.1c0.9,0,1.4-0.1,1.4-0.1v-3.1v-1.4c0,0-0.1,0-0.6,0C47.6,25.6,46.8,25.2,46.7,23.7z
M36,30l2.4-2.4v-0.6L35.4,30H36z"/>
</g>
</svg>