<?xml version="1.0" encoding="utf-8"?>
<!-- Generator: Adobe Illustrator 19.2.1, SVG Export Plug-In . SVG Version: 6.00 Build 0)  -->
<svg version="1.1" id="Layer_1" xmlns="http://www.w3.org/2000/svg" xmlns:xlink="http://www.w3.org/1999/xlink" x="0px" y="0px"
	 viewBox="0 0 40 40" style="enable-background:new 0 0 40 40;" xml:space="preserve">
<style type="text/css">
	.st0{fill:none;stroke:#00A29D;stroke-width:1.5;stroke-linecap:round;stroke-linejoin:round;stroke-miterlimit:10;}
</style>
<title>Arte_JaliscoAbierto</title>
<g>
	<path class="st0" d="M15.5,32.1c0-3.1,2.6-5.7,5.7-5.7l0,0c3.1,0,5.7,2.6,5.7,5.7v2.8l-5.6,3.6L15.5,35V32.1z"/>
	<path class="st0" d="M26,16.2c1.1-1.3,2.8-2.2,4.7-2.2l0,0c3.3,0,6.1,2.7,6.1,6.1V26v2.5l-7.4,4.8"/>
	<circle class="st0" cx="30.4" cy="7.6" r="6.4"/>
	<circle class="st0" cx="21.2" cy="21.3" r="5.1"/>
	<path class="st0" d="M15.2,17.3c-1-0.7-2.2-1.1-3.5-1.1l0,0c-3.3,0-6.1,2.7-6.1,6.1v6.4l7.4,4.8"/>
	<path class="st0" d="M18.7,27c0.2,1.2,1.2,2.3,2.4,2.3c1.2,0,2.2-1.1,2.4-2.2"/>
	<path class="st0" d="M18,4.9"/>
	<path class="st0" d="M16.2,9c-1.1-3.7-3.8-3.9-3.8-3.6s-0.8,2.1-0.8,2.1H7.7c0,0-0.8,0.5-0.8,2.7v1.4c0,1-0.8,1.8-1.8,1.8l0,0
		c-1,0-1.8-0.8-1.8-1.8V9.8c0-4.6,3.7-8.3,8.3-8.3s8.3,3.7,8.3,8.3v1.8c0,1-0.8,1.8-1.8,1.8l0,0c-1,0-1.8-0.8-1.8-1.8V9H16.2z"/>
	<path class="st0" d="M24.2,9.3c0,0,1.4-0.2,2-1.2s0.5-1.2,0.5-1.2s3.4,0.2,6.7-1c0,0,0.7,2.6,3.2,2.1"/>
	<path class="st0" d="M16.6,19c0,0,1.5,0.8,4.6,0.8s4.6-0.8,4.6-0.8"/>
	<path class="st0" d="M9.1,16.8v0.1c0,1.4,1.1,2.7,2.5,2.7s2.5-1.4,2.5-2.7c0-0.1,0-0.2,0-0.3"/>
	<path class="st0" d="M32.8,14.4c0,0.2,0.1,0.4,0.1,0.5c0,1.4-1.1,2.5-2.5,2.5s-2.5-1.1-2.5-2.5c0-0.1,0-0.2,0-0.2"/>
	<path class="st0" d="M6.1,13.1c1.1,1.9,3.1,3.1,5.5,3.1c2.3,0,4.3-1.2,5.5-3.1"/>
</g>
</svg>
