<svg id="Layer_1" data-name="Layer 1" xmlns="http://www.w3.org/2000/svg" viewBox="0 0 40 40"><defs><style>.cls-1{fill:#00a29d;}</style></defs><title>Arte</title><path class="cls-1" d="M8.06,19.54a2.79,2.79,0,1,0-2.79-2.79,2.8,2.8,0,0,0,2.79,2.79h0Zm0-4a1.19,1.19,0,1,1-1.19,1.19,1.19,1.19,0,0,1,1.19-1.19h0Zm0,0"/><path class="cls-1" d="M31.87,19.54a2.79,2.79,0,1,0-2.79-2.79,2.8,2.8,0,0,0,2.79,2.79h0Zm0-4a1.19,1.19,0,1,1-1.19,1.19,1.19,1.19,0,0,1,1.19-1.19h0Zm0,0"/><path class="cls-1" d="M20.06,33.42a2.79,2.79,0,1,0,2.79,2.79,2.8,2.8,0,0,0-2.79-2.79h0Zm0,4a1.19,1.19,0,1,1,1.19-1.19,1.19,1.19,0,0,1-1.19,1.19h0Zm0,0"/><path class="cls-1" d="M34.37,28.1a4.46,4.46,0,0,0-2.66.88L20.62,21.33V9.91a4.49,4.49,0,1,0-1.6,0V21.33L8.11,28.85A4.5,4.5,0,1,0,9.28,30l10.53-7.27L30.6,30.16a4.49,4.49,0,1,0,3.77-2.06h0ZM16.93,5.49a2.88,2.88,0,1,1,2.88,2.88,2.89,2.89,0,0,1-2.88-2.88h0Zm-11.31,30a2.88,2.88,0,1,1,2.88-2.88,2.89,2.89,0,0,1-2.88,2.88h0Zm28.75,0a2.88,2.88,0,1,1,2.88-2.88,2.89,2.89,0,0,1-2.88,2.88h0Zm0,0"/></svg>