<svg id="Layer_1" data-name="Layer 1" xmlns="http://www.w3.org/2000/svg" xmlns:xlink="http://www.w3.org/1999/xlink" viewBox="0 0 182 74"><defs><style>.cls-1{fill:url(#New_Gradient_Swatch_1);}.cls-2{fill:url(#New_Gradient_Swatch_2);}.cls-3{fill:url(#New_Gradient_Swatch_1-2);}.cls-4{fill:url(#New_Gradient_Swatch_2-2);}.cls-5{fill:url(#New_Gradient_Swatch_2-3);}.cls-6{fill:url(#New_Gradient_Swatch_1-3);}.cls-7{fill:url(#New_Gradient_Swatch_2-4);}.cls-8{fill:url(#New_Gradient_Swatch_1-4);}</style><linearGradient id="New_Gradient_Swatch_1" x1="109.62" y1="71" x2="127.37" y2="-1" gradientUnits="userSpaceOnUse"><stop offset="0" stop-color="#00716e"/><stop offset="1" stop-color="#00a29b"/></linearGradient><linearGradient id="New_Gradient_Swatch_2" x1="92.97" y1="41.26" x2="110.97" y2="76.43" gradientUnits="userSpaceOnUse"><stop offset="0" stop-color="#00fff6"/><stop offset="1" stop-color="#00a29b"/></linearGradient><linearGradient id="New_Gradient_Swatch_1-2" x1="55.74" y1="37.59" x2="72.74" y2="73.42" xlink:href="#New_Gradient_Swatch_1"/><linearGradient id="New_Gradient_Swatch_2-2" x1="73.88" y1="39.11" x2="56.39" y2="3.51" xlink:href="#New_Gradient_Swatch_2"/><linearGradient id="New_Gradient_Swatch_2-3" x1="170.12" y1="33.51" x2="152.29" y2="-2.83" xlink:href="#New_Gradient_Swatch_2"/><linearGradient id="New_Gradient_Swatch_1-3" x1="173.49" y1="33.57" x2="155.49" y2="70.32" xlink:href="#New_Gradient_Swatch_1"/><linearGradient id="New_Gradient_Swatch_2-4" x1="11.92" y1="39.26" x2="27.75" y2="74.43" xlink:href="#New_Gradient_Swatch_2"/><linearGradient id="New_Gradient_Swatch_1-4" x1="12.19" y1="32.92" x2="29.69" y2="-2.83" xlink:href="#New_Gradient_Swatch_1"/></defs><title>Retos_Jalisco</title><polygon class="cls-1" points="118 73 100 73 118 1 136 1 118 73"/><polygon class="cls-2" points="100 73 118 73 100 37 82 37 100 73"/><polygon class="cls-3" points="64 73 82 73 64 37 46 37 64 73"/><polygon class="cls-4" points="64 37 82 37 64 1 46 1 64 37"/><g id="_Group_" data-name="&lt;Group&gt;"><polygon class="cls-5" points="163 1 181 37 163 37 145 1 163 1"/><polygon class="cls-6" points="181 37 163 73 145 73 163 37 181 37"/></g><g id="_Group_2" data-name="&lt;Group&gt;"><polygon class="cls-7" points="19 73 1 37 19 37 37 73 19 73"/><polygon class="cls-8" points="1 37 19 1 37 1 19 37 1 37"/></g></svg>