<?xml version="1.0" encoding="utf-8"?>
<!-- Generator: Adobe Illustrator 18.0.0, SVG Export Plug-In . SVG Version: 6.00 Build 0)  -->
<!DOCTYPE svg PUBLIC "-//W3C//DTD SVG 1.1//EN" "http://www.w3.org/Graphics/SVG/1.1/DTD/svg11.dtd">
<svg version="1.1" id="Capa_1" xmlns="http://www.w3.org/2000/svg" xmlns:xlink="http://www.w3.org/1999/xlink" x="0px" y="0px"
	 viewBox="0 0 300 300" enable-background="new 0 0 300 300" xml:space="preserve">
<g>
	<path fill="rgb(27, 29, 32)" d="M150,0C67.2,0,0,67.2,0,150c0,82.9,67.2,150,150,150c82.9,0,150-67.2,150-150V0H150z"/>
	<g>
		<g>
			<g>
				<polygon fill="#FFFFFF" points="148.4,214 70.9,212.9 148.4,211.9 149.6,212.9 				"/>
				<polygon fill="#FFFFFF" points="156.1,211.9 258.4,212.9 156.1,214 154.9,212.9 				"/>
			</g>
			<g>
				<g>
					<path fill="#FFFFFF" d="M57.2,222.6l0.2,3h-0.2c-0.3-0.8-0.6-1.3-1-1.7c-0.6-0.6-1.3-0.8-2.2-0.8c-1.2,0-2.1,0.5-2.8,1.4
						c-0.5,0.8-0.8,1.8-0.8,2.9c0,0.9,0.2,1.7,0.5,2.5c0.3,0.8,0.8,1.3,1.4,1.7c0.6,0.4,1.2,0.5,1.7,0.5c0.3,0,0.7,0,1-0.1
						c0.3-0.1,0.6-0.2,1-0.4v-2.7c0-0.5,0-0.8-0.1-0.9c-0.1-0.2-0.2-0.3-0.3-0.4c-0.2-0.1-0.4-0.1-0.8-0.1v-0.3h3.7v0.3h-0.2
						c-0.4,0-0.6,0.1-0.7,0.4c-0.1,0.2-0.1,0.5-0.1,1v2.9c-0.5,0.3-1.1,0.5-1.6,0.7c-0.5,0.1-1.1,0.2-1.8,0.2
						c-1.8,0-3.2-0.6-4.2-1.8c-0.7-0.9-1.1-1.9-1.1-3.1c0-0.8,0.2-1.6,0.6-2.4c0.5-0.9,1.1-1.6,2-2.1c0.7-0.4,1.5-0.6,2.5-0.6
						c0.3,0,0.7,0,1,0.1c0.3,0.1,0.7,0.2,1.2,0.4c0.2,0.1,0.4,0.2,0.5,0.2c0.1,0,0.2,0,0.2-0.1c0.1-0.1,0.1-0.2,0.1-0.5H57.2z"/>
					<path fill="#FFFFFF" d="M66.6,222.6c1.2,0,2.3,0.5,3.2,1.4c0.9,0.9,1.3,2.1,1.3,3.5c0,1.5-0.5,2.7-1.4,3.6
						c-0.9,1-2,1.4-3.3,1.4c-1.3,0-2.4-0.5-3.3-1.4c-0.9-0.9-1.3-2.1-1.3-3.6c0-1.5,0.5-2.7,1.5-3.7C64.3,223,65.3,222.6,66.6,222.6
						z M66.4,223.1c-0.9,0-1.5,0.3-2.1,1c-0.6,0.8-1,1.9-1,3.4c0,1.6,0.3,2.8,1,3.6c0.5,0.6,1.2,0.9,2,0.9c0.9,0,1.6-0.3,2.2-1
						c0.6-0.7,0.9-1.8,0.9-3.3c0-1.6-0.3-2.8-1-3.7C68.1,223.4,67.3,223.1,66.4,223.1z"/>
					<path fill="#FFFFFF" d="M80.9,227.4c0.7,0.1,1.2,0.4,1.5,0.7c0.5,0.4,0.7,1,0.7,1.6c0,0.5-0.2,0.9-0.4,1.4
						c-0.3,0.4-0.7,0.7-1.3,0.9c-0.5,0.2-1.3,0.3-2.4,0.3h-4.5v-0.3h0.4c0.4,0,0.7-0.1,0.8-0.4c0.1-0.2,0.2-0.5,0.2-1v-6.2
						c0-0.6-0.1-1-0.2-1.1c-0.2-0.2-0.4-0.3-0.8-0.3h-0.4v-0.3h4.1c0.8,0,1.4,0,1.8,0.2c0.7,0.2,1.2,0.5,1.6,0.9
						c0.4,0.4,0.5,0.9,0.5,1.5c0,0.5-0.1,0.9-0.4,1.3C81.9,227,81.5,227.3,80.9,227.4z M77.3,227.1c0.2,0,0.4,0.1,0.6,0.1
						c0.2,0,0.5,0,0.7,0c0.7,0,1.2-0.1,1.5-0.2c0.3-0.1,0.6-0.4,0.8-0.7c0.2-0.3,0.3-0.6,0.3-1c0-0.6-0.2-1-0.7-1.4
						c-0.5-0.4-1.1-0.6-2-0.6c-0.5,0-0.9,0.1-1.3,0.2V227.1z M77.3,231.6c0.5,0.1,1.1,0.2,1.6,0.2c0.9,0,1.5-0.2,1.9-0.6
						c0.4-0.4,0.7-0.9,0.7-1.4c0-0.4-0.1-0.7-0.3-1.1c-0.2-0.3-0.5-0.6-1-0.8c-0.4-0.2-1-0.3-1.7-0.3c-0.3,0-0.5,0-0.8,0
						c-0.2,0-0.4,0-0.5,0.1V231.6z"/>
					<path fill="#FFFFFF" d="M90.9,232.1v0.3h-4.1v-0.3h0.3c0.4,0,0.7-0.1,0.9-0.3c0.1-0.2,0.2-0.5,0.2-1.1v-6.2
						c0-0.5,0-0.8-0.1-0.9c-0.1-0.1-0.1-0.2-0.3-0.3c-0.2-0.1-0.4-0.2-0.7-0.2h-0.3v-0.3h4.1v0.3h-0.3c-0.4,0-0.7,0.1-0.9,0.3
						c-0.1,0.2-0.2,0.5-0.2,1.1v6.2c0,0.5,0,0.8,0.1,0.9c0.1,0.1,0.2,0.2,0.3,0.3c0.2,0.1,0.4,0.2,0.6,0.2H90.9z"/>
					<path fill="#FFFFFF" d="M96.8,223.3v3.7h2.1c0.5,0,0.9-0.1,1.1-0.2c0.2-0.2,0.4-0.6,0.4-1.1h0.3v3.3h-0.3
						c-0.1-0.5-0.1-0.8-0.2-0.9c-0.1-0.2-0.2-0.3-0.4-0.4c-0.2-0.1-0.5-0.1-0.9-0.1h-2.1v3.1c0,0.4,0,0.7,0,0.8
						c0,0.1,0.1,0.1,0.2,0.2c0.1,0,0.3,0.1,0.5,0.1h1.6c0.5,0,0.9,0,1.2-0.1c0.2-0.1,0.5-0.2,0.7-0.4c0.3-0.3,0.6-0.7,0.9-1.3h0.3
						l-0.8,2.4h-7.3v-0.3h0.3c0.2,0,0.4-0.1,0.6-0.2c0.2-0.1,0.3-0.2,0.3-0.3c0.1-0.2,0.1-0.4,0.1-0.9v-6.2c0-0.6-0.1-1-0.2-1.1
						c-0.2-0.2-0.4-0.3-0.8-0.3h-0.3v-0.3h7.3l0.1,2.1h-0.3c-0.1-0.5-0.2-0.8-0.3-1c-0.1-0.2-0.3-0.3-0.5-0.4
						c-0.2-0.1-0.5-0.1-1-0.1H96.8z"/>
					<path fill="#FFFFFF" d="M114.9,232.3h-2.6l-3.2-4.4c-0.2,0-0.4,0-0.6,0c-0.1,0-0.1,0-0.2,0c-0.1,0-0.1,0-0.2,0v2.8
						c0,0.6,0.1,1,0.2,1.1c0.2,0.2,0.5,0.3,0.8,0.3h0.4v0.3h-4.1v-0.3h0.4c0.4,0,0.7-0.1,0.9-0.4c0.1-0.1,0.1-0.5,0.1-1v-6.2
						c0-0.6-0.1-1-0.2-1.1c-0.2-0.2-0.5-0.3-0.8-0.3h-0.4v-0.3h3.5c1,0,1.8,0.1,2.2,0.2c0.5,0.1,0.9,0.4,1.2,0.8
						c0.3,0.4,0.5,0.9,0.5,1.4c0,0.6-0.2,1.1-0.6,1.5c-0.4,0.4-1,0.7-1.8,0.9l2,2.7c0.4,0.6,0.8,1,1.2,1.2c0.3,0.2,0.7,0.3,1.3,0.4
						V232.3z M108.2,227.4c0.1,0,0.2,0,0.2,0c0.1,0,0.1,0,0.2,0c0.9,0,1.6-0.2,2.1-0.6c0.5-0.4,0.7-0.9,0.7-1.5
						c0-0.6-0.2-1.1-0.6-1.5c-0.4-0.4-0.9-0.6-1.5-0.6c-0.3,0-0.6,0-1.1,0.1V227.4z"/>
					<path fill="#FFFFFF" d="M117.2,222.8h2.6l5.8,7.1v-5.5c0-0.6,0-0.9-0.2-1.1c-0.2-0.2-0.4-0.3-0.8-0.3h-0.3v-0.3h3.3v0.3h-0.3
						c-0.4,0-0.7,0.1-0.9,0.4c-0.1,0.2-0.2,0.5-0.2,1v8H126l-6.3-7.7v5.9c0,0.6,0.1,1,0.2,1.1c0.2,0.2,0.5,0.3,0.8,0.3h0.4v0.3h-3.3
						v-0.3h0.3c0.4,0,0.7-0.1,0.9-0.4c0.1-0.1,0.1-0.5,0.1-1V224c-0.3-0.3-0.5-0.5-0.6-0.6c-0.1-0.1-0.3-0.2-0.6-0.3
						c-0.1,0-0.3-0.1-0.6-0.1V222.8z"/>
					<path fill="#FFFFFF" d="M135.6,222.6c1.2,0,2.3,0.5,3.2,1.4c0.9,0.9,1.3,2.1,1.3,3.5c0,1.5-0.4,2.7-1.3,3.6
						c-0.9,1-2,1.4-3.3,1.4c-1.3,0-2.4-0.5-3.3-1.4c-0.9-0.9-1.3-2.1-1.3-3.6c0-1.5,0.5-2.7,1.5-3.7
						C133.3,223,134.4,222.6,135.6,222.6z M135.5,223.1c-0.8,0-1.5,0.3-2,1c-0.6,0.8-1,1.9-1,3.4c0,1.6,0.3,2.8,1,3.6
						c0.5,0.6,1.2,0.9,2,0.9c0.9,0,1.6-0.3,2.2-1c0.6-0.7,0.9-1.8,0.9-3.3c0-1.6-0.3-2.8-1-3.7C137.1,223.4,136.4,223.1,135.5,223.1
						z"/>
					<path fill="#FFFFFF" d="M149.8,232.3v-0.3h0.3c0.4,0,0.7-0.1,0.9-0.4c0.1-0.2,0.2-0.5,0.2-1v-6.2c0-0.6-0.1-1-0.2-1.1
						c-0.2-0.2-0.5-0.3-0.8-0.3h-0.3v-0.3h3.9c1.4,0,2.5,0.2,3.3,0.5c0.7,0.3,1.4,0.9,1.8,1.6c0.5,0.7,0.7,1.6,0.7,2.6
						c0,1.3-0.4,2.4-1.2,3.3c-0.9,1-2.3,1.5-4.1,1.5H149.8z M152.5,231.6c0.6,0.1,1.1,0.2,1.5,0.2c1.1,0,2-0.4,2.7-1.1
						c0.7-0.8,1.1-1.8,1.1-3.1c0-1.3-0.4-2.3-1.1-3.1c-0.7-0.7-1.6-1.1-2.8-1.1c-0.4,0-0.9,0.1-1.4,0.2V231.6z"/>
					<path fill="#FFFFFF" d="M165.5,223.3v3.7h2.1c0.5,0,0.9-0.1,1.1-0.2c0.2-0.2,0.4-0.6,0.4-1.1h0.3v3.3h-0.3
						c-0.1-0.5-0.1-0.8-0.2-0.9c-0.1-0.2-0.2-0.3-0.4-0.4c-0.2-0.1-0.5-0.1-0.9-0.1h-2.1v3.1c0,0.4,0,0.7,0.1,0.8
						c0,0.1,0.1,0.1,0.2,0.2c0.1,0,0.3,0.1,0.5,0.1h1.6c0.5,0,0.9,0,1.2-0.1c0.3-0.1,0.5-0.2,0.7-0.4c0.3-0.3,0.6-0.7,0.9-1.3h0.3
						l-0.8,2.4h-7.3v-0.3h0.3c0.2,0,0.4-0.1,0.6-0.2c0.2-0.1,0.2-0.2,0.3-0.3c0-0.2,0.1-0.4,0.1-0.9v-6.2c0-0.6-0.1-1-0.2-1.1
						c-0.2-0.2-0.5-0.3-0.8-0.3h-0.3v-0.3h7.3l0.1,2.1H170c-0.1-0.5-0.2-0.8-0.3-1c-0.1-0.2-0.3-0.3-0.5-0.4c-0.2-0.1-0.5-0.1-1-0.1
						H165.5z"/>
					<path fill="#FFFFFF" d="M182.1,229.7l0.2,0.1l-0.8,2.6h-7.4v-0.3h0.4c0.4,0,0.7-0.1,0.9-0.4c0.1-0.1,0.1-0.5,0.1-1v-6.1
						c0-0.6-0.1-1-0.2-1.1c-0.2-0.2-0.5-0.3-0.8-0.3h-0.4v-0.3h4.3v0.3c-0.5,0-0.9,0-1.1,0.1c-0.2,0.1-0.3,0.2-0.4,0.4
						c-0.1,0.1-0.1,0.5-0.1,1.1v6c0,0.4,0,0.7,0.1,0.8c0.1,0.1,0.2,0.2,0.3,0.2c0.1,0,0.5,0.1,1.1,0.1h0.7c0.7,0,1.2-0.1,1.5-0.2
						c0.3-0.1,0.6-0.3,0.8-0.6C181.6,230.7,181.9,230.3,182.1,229.7z"/>
					<path fill="#FFFFFF" d="M193.9,223.3v3.7h2.1c0.5,0,0.9-0.1,1.1-0.2c0.3-0.2,0.4-0.6,0.4-1.1h0.3v3.3h-0.3
						c-0.1-0.5-0.1-0.8-0.2-0.9c-0.1-0.2-0.2-0.3-0.4-0.4c-0.2-0.1-0.5-0.1-0.9-0.1h-2.1v3.1c0,0.4,0,0.7,0.1,0.8
						c0,0.1,0.1,0.1,0.2,0.2c0.1,0,0.3,0.1,0.5,0.1h1.6c0.5,0,0.9,0,1.2-0.1c0.3-0.1,0.5-0.2,0.7-0.4c0.3-0.3,0.6-0.7,0.9-1.3h0.3
						l-0.8,2.4h-7.4v-0.3h0.3c0.2,0,0.5-0.1,0.7-0.2c0.1-0.1,0.3-0.2,0.3-0.3c0.1-0.2,0.1-0.4,0.1-0.9v-6.2c0-0.6-0.1-1-0.2-1.1
						c-0.2-0.2-0.5-0.3-0.9-0.3h-0.3v-0.3h7.4l0.1,2.1h-0.3c-0.1-0.5-0.2-0.8-0.3-1c-0.1-0.2-0.3-0.3-0.5-0.4
						c-0.2-0.1-0.5-0.1-1-0.1H193.9z"/>
					<path fill="#FFFFFF" d="M208.9,222.6v3.3h-0.3c-0.1-0.6-0.2-1.1-0.5-1.5c-0.2-0.4-0.5-0.7-0.9-0.9c-0.4-0.2-0.8-0.3-1.3-0.3
						c-0.5,0-0.9,0.2-1.2,0.4c-0.3,0.3-0.5,0.6-0.5,1c0,0.3,0.1,0.6,0.3,0.8c0.3,0.4,1,0.8,2.1,1.4c0.9,0.5,1.5,0.8,1.8,1.1
						c0.3,0.2,0.6,0.5,0.8,0.9c0.2,0.3,0.3,0.7,0.3,1.1c0,0.7-0.3,1.4-0.8,1.9c-0.6,0.5-1.3,0.8-2.2,0.8c-0.3,0-0.5,0-0.8-0.1
						c-0.2,0-0.4-0.1-0.9-0.2c-0.5-0.1-0.7-0.2-0.9-0.2c-0.1,0-0.2,0-0.3,0.1c-0.1,0.1-0.1,0.2-0.1,0.4h-0.3v-3.3h0.3
						c0.1,0.7,0.3,1.2,0.5,1.5c0.2,0.3,0.5,0.6,0.9,0.9c0.4,0.2,0.9,0.3,1.4,0.3c0.6,0,1.1-0.2,1.4-0.5c0.3-0.3,0.5-0.7,0.5-1.1
						c0-0.2,0-0.5-0.2-0.7c-0.1-0.2-0.3-0.5-0.6-0.7c-0.2-0.1-0.7-0.4-1.5-0.9c-0.8-0.5-1.4-0.8-1.7-1.1c-0.3-0.3-0.6-0.6-0.8-0.9
						c-0.2-0.3-0.3-0.7-0.3-1.1c0-0.7,0.3-1.3,0.8-1.8c0.5-0.5,1.2-0.7,2-0.7c0.5,0,1,0.1,1.6,0.4c0.2,0.1,0.4,0.2,0.6,0.2
						c0.1,0,0.2,0,0.3-0.1c0.1-0.1,0.1-0.2,0.2-0.5H208.9z"/>
					<path fill="#FFFFFF" d="M221.2,222.8l0.1,2.2H221c0-0.4-0.1-0.7-0.2-0.8c-0.1-0.3-0.3-0.5-0.6-0.6c-0.2-0.1-0.6-0.2-1-0.2H218
						v7.3c0,0.6,0,1,0.2,1.1c0.2,0.2,0.5,0.3,0.8,0.3h0.3v0.3h-4v-0.3h0.3c0.4,0,0.7-0.1,0.9-0.4c0.1-0.1,0.2-0.5,0.2-1v-7.3h-1.1
						c-0.4,0-0.8,0-0.9,0.1c-0.2,0.1-0.4,0.3-0.6,0.5c-0.2,0.3-0.3,0.6-0.3,1h-0.3l0.1-2.2H221.2z"/>
					<path fill="#FFFFFF" d="M229.7,229.1H226l-0.6,1.5c-0.2,0.3-0.2,0.6-0.2,0.8c0,0.1,0.1,0.3,0.2,0.4c0.1,0.1,0.4,0.2,0.9,0.2
						v0.3h-3v-0.3c0.4-0.1,0.6-0.2,0.8-0.3c0.2-0.2,0.5-0.7,0.8-1.4l3.4-7.8h0.2l3.3,7.9c0.3,0.7,0.5,1.1,0.7,1.3
						c0.2,0.2,0.5,0.3,0.9,0.3v0.3h-3.7v-0.3c0.4,0,0.6-0.1,0.8-0.2c0.1-0.1,0.2-0.2,0.2-0.4c0-0.2-0.1-0.5-0.3-1L229.7,229.1z
						 M229.5,228.6l-1.6-3.9l-1.7,3.9H229.5z"/>
					<path fill="#FFFFFF" d="M236.3,232.3v-0.3h0.3c0.4,0,0.7-0.1,0.9-0.4c0.1-0.2,0.1-0.5,0.1-1v-6.2c0-0.6-0.1-1-0.2-1.1
						c-0.2-0.2-0.4-0.3-0.8-0.3h-0.3v-0.3h3.9c1.4,0,2.5,0.2,3.3,0.5c0.7,0.3,1.3,0.9,1.8,1.6c0.5,0.7,0.7,1.6,0.7,2.6
						c0,1.3-0.4,2.4-1.2,3.3c-0.9,1-2.3,1.5-4.1,1.5H236.3z M239,231.6c0.6,0.1,1.1,0.2,1.5,0.2c1.1,0,2-0.4,2.7-1.1
						c0.7-0.8,1.1-1.8,1.1-3.1c0-1.3-0.3-2.3-1.1-3.1c-0.7-0.7-1.6-1.1-2.7-1.1c-0.4,0-0.9,0.1-1.4,0.2V231.6z"/>
					<path fill="#FFFFFF" d="M254.3,222.6c1.2,0,2.3,0.5,3.2,1.4c0.9,0.9,1.4,2.1,1.4,3.5c0,1.5-0.5,2.7-1.4,3.6
						c-0.9,1-2,1.4-3.3,1.4c-1.3,0-2.4-0.5-3.3-1.4c-0.9-0.9-1.3-2.1-1.3-3.6c0-1.5,0.5-2.7,1.6-3.7
						C252,223,253.1,222.6,254.3,222.6z M254.2,223.1c-0.9,0-1.5,0.3-2.1,1c-0.6,0.8-0.9,1.9-0.9,3.4c0,1.6,0.3,2.8,1,3.6
						c0.5,0.6,1.2,0.9,2,0.9c0.9,0,1.6-0.3,2.2-1c0.6-0.7,0.9-1.8,0.9-3.3c0-1.6-0.3-2.8-1-3.7C255.8,223.4,255.1,223.1,254.2,223.1
						z"/>
				</g>
			</g>
			<g>
				<path fill="#FFFFFF" d="M53.5,169.4v0.9c1.6,0,3.5-0.2,4.5,2.4c0.2,0.6,0.4,1.9,0.4,3v25.9c0,1.6,0,2.9-0.1,3.8
					c-0.1,0.9-0.3,1.7-0.6,2.5c-0.3,0.7-0.9,1.3-1.6,1.7c-0.7,0.4-1.7,0.6-3,0.6c-1.8,0-2.7-0.5-2.7-1.4c0-0.2,0.1-0.5,0.2-0.9
					c0.1-0.3,0.2-0.6,0.2-0.9c0-0.5-0.2-0.9-0.5-1.4c-0.3-0.4-0.7-0.8-1.2-1c-0.5-0.3-1.1-0.4-1.7-0.4c-1.1,0-2,0.4-2.6,1.1
					c-0.6,0.7-1,1.5-1,2.4c0,1.1,0.4,2,1.1,2.8c0.7,0.8,1.8,1.4,3.1,1.8c1.3,0.4,2.8,0.6,4.6,0.6c1.1,0,2.3-0.1,3.7-0.4
					c1.4-0.3,2.9-0.9,4.5-1.8c1.6-0.9,2.8-2.2,3.7-3.8c0.6-1.2,1-2.2,1.2-3.2c0.2-1,0.3-2.4,0.3-4.2v-23.9c0-1,0.1-2.3,0.4-2.9
					c1.1-2.4,3.1-2.4,4.6-2.4v-0.9H53.5z M62.4,202.9c0,0-1,7-6.9,7l0,0c0,0,0,0,0,0c5.6-0.2,6.4-6.9,6.4-6.9s0-21.4,0-27
					c0-3.3-2.9-4.6-5.3-5.2c-0.1,0-0.2-0.1-0.3-0.1c2.5,0.5,6,1.8,6,5.3C62.4,181.5,62.4,202.9,62.4,202.9z"/>
			</g>
			<g>
				<path fill="#FFFFFF" d="M102.1,201.1c-0.7-0.7-1.7-2.3-2.8-4.9l-12.1-27.5h-0.5l-2.1,4.6c0.4,1,9.8,22.6,11,25.4
					c1.3,2.8-4.6,3.2-4.6,3.2l0,0c0.2,0,0.4-0.1,0.6-0.1c1.6-0.3,4.3-1,3.4-3.1c-1.1-2.5-9.1-20.9-10.7-24.7l-9.6,21.5
					c-1.1,2.6-2.1,4.2-2.9,5.1c-0.8,0.8-1.8,1.3-3,1.5v0.9H80V202c-1.7-0.1-2.8-0.3-3.3-0.6c-0.8-0.4-1.1-1.1-1.1-2
					c0.2-1.2,2-8.1,12.1-8.6c0,0-3.3-2.8-8.5-0.8l0.4-0.8l4.1-9.1l4.3,10l1.5,3.4l0,0l0.4,0.9l0,0l1.4,3.3c0.5,1.1,0.7,1.7,0.7,1.8
					c0.1,0.3,0.2,0.6,0.2,0.9c0,0.5-0.2,0.9-0.5,1.1c-0.5,0.4-1.4,0.6-2.7,0.6h-0.7v0.9h16.2V202
					C103.5,201.9,102.7,201.6,102.1,201.1z"/>
			</g>
			<g>
				<path fill="#FFFFFF" d="M137.3,191.1c-0.8,2.7-1.6,4.6-2.5,6c-0.9,1.3-1.9,2.3-3.1,3c-1.2,0.6-2.7,0.9-4.5,0.9h-2.8
					c-1.6,0-2.6-0.1-3-0.2c-0.6-0.2-0.9-0.6-1.2-1.1c-0.2-0.5-0.3-1.6-0.3-3.3v-21.4c0-1.7,0.1-2.7,0.3-3.1c0.2-0.5,0.6-0.9,1-1.2
					c0.6-0.3,1.4-0.5,2.4-0.5h1.5v-0.9h-17.9v0.9h1.1c0.9,0,1.7,0.2,2.3,0.5c0.5,0.3,0.9,0.7,1.1,1.1c0.2,0.4,0.3,1.5,0.3,3.2v22.1
					c0,1.7-0.1,2.7-0.3,3.1c-0.2,0.6-0.6,1-1,1.2c-0.6,0.3-1.4,0.5-2.4,0.5h-1.1v0.9H137l1.3-11.8H137.3z M110.1,201.8
					C110.1,201.8,110.1,201.8,110.1,201.8c5.4-0.2,5.7-3.2,5.7-3.2s-0.1-20.9,0-24.8c0-2.3-3-3.2-5.5-3.5c-0.1,0-0.3-0.1-0.4-0.1
					c2.5,0.2,6.5,0.9,6.5,3.5c-0.1,3.9,0,24.8,0,24.8S115.9,201.8,110.1,201.8z"/>
			</g>
			<g>
				<path fill="#FFFFFF" d="M154.1,172c0.3-0.5,0.6-0.9,1-1.2c0.6-0.3,1.4-0.5,2.3-0.5h1.1v-0.9h-17.5v0.9h1.1
					c0.9,0,1.7,0.2,2.2,0.5c0.6,0.3,0.9,0.7,1.1,1.1c0.2,0.4,0.3,1.5,0.3,3.2v22.1c0,1.7-0.1,2.7-0.3,3.1c-0.2,0.6-0.5,1-1,1.2
					c-0.6,0.3-1.4,0.5-2.3,0.5h-1.1v0.9h17.5V202h-1.1c-0.9,0-1.7-0.2-2.2-0.5c-0.5-0.3-0.9-0.7-1.1-1.1c-0.2-0.4-0.3-1.5-0.3-3.2
					v-22.1C153.9,173.4,154,172.4,154.1,172z M144,201.9C144,201.9,144.1,201.9,144,201.9c5.4-0.2,5.7-3.2,5.7-3.2s-0.1-20.9,0-24.8
					c0-2.3-3-3.1-5.5-3.4c-0.1,0-0.3-0.1-0.4-0.1c2.6,0.2,6.5,0.9,6.5,3.5c-0.1,3.9,0,24.8,0,24.8S149.8,201.8,144,201.9z"/>
			</g>
			<g>
				<path fill="#FFFFFF" d="M183.9,187.5c-1.4-1.7-4-3.5-7.9-5.5c-2.8-1.4-4.6-2.3-5.4-2.9c-1.1-0.7-1.8-1.5-2.3-2.3
					c-0.3-0.6-0.5-1.2-0.5-2c0-1.2,0.5-2.2,1.5-3.1c1-0.9,2.3-1.3,4-1.3c2.2,0,4.2,0.8,6.1,2.6c1.9,1.7,3,4,3.5,6.8h1l-0.3-11.2
					h-0.7c-0.2,1-0.4,1.7-0.7,1.9c-0.2,0.3-0.6,0.4-1,0.4c-0.4,0-1.2-0.3-2.3-0.8c-1.1-0.5-2.1-0.9-2.8-1.1
					c-0.4-0.1-0.7-0.2-1.2-0.2c-1.8,0.1-8.9,1.1-9.1,8.4c0.2,8.7,18.3,8.2,18,18.3c0.1,5.2-6.4,6.7-8.9,6.6c0.4,0,0.8-0.1,1.2-0.1
					c0.1,0,0.2,0,0.3,0c3-0.5,6.9-2.3,6.8-6.4c0.3-10.1-17.7-9.6-18-18.3c0.1-7.3,7.2-8.3,9.5-8.4c-0.6-0.1-1.2-0.1-1.8-0.1
					c-3,0-5.4,0.9-7.4,2.8c-2,1.9-2.9,4.2-2.9,6.8c0,1.6,0.3,3,1.1,4.3c0.7,1.3,1.7,2.5,3.1,3.5c1.3,1.1,3.5,2.3,6.6,3.8
					c2.2,1.1,3.7,1.9,4.6,2.6c0.9,0.7,1.5,1.4,1.9,2.1c0.4,0.8,0.6,1.5,0.6,2.3c0,1.3-0.5,2.5-1.7,3.5c-1.1,1-2.5,1.5-4.4,1.5
					c-2.4,0-4.6-0.9-6.7-2.8c-2.1-1.9-3.5-4.6-4.2-8.1h-0.9v12.7h0.9c0.3-0.7,0.7-1.2,1.2-1.5c0.5-0.3,0.9-0.5,1.4-0.5
					c0.5,0,1.2,0.2,1.9,0.5c1.4,0.6,2.6,1,3.5,1.2c1,0.2,1.9,0.3,3,0.3c3.4,0,6.1-1,8.3-3c2.2-2,3.3-4.4,3.3-7.2
					C185.9,191.2,185.2,189.2,183.9,187.5z"/>
			</g>
			<g>
				<g>
					<path fill="#FFFFFF" d="M257.1,173.6c-3.4-3.3-7.7-4.9-13-4.7c-5-0.2-9.1,1.4-12.5,4.7c-3.4,3.3-5.1,7.5-5.1,12.4
						c0,4.4,1.3,8.3,3.9,11.5c3.3,4.1,8,6.1,14,6.1c6,0,10.7-2.2,14-6.4c2.5-3.2,3.7-7,3.7-11.2C262.1,181,260.4,176.9,257.1,173.6z
						 M244.3,203.1c0,0-0.1,0-0.2,0c-1.8-0.1-13.8-1.4-13.9-16.8c-0.1-16.7,14.1-16.8,14.1-16.8s14.2,0,14.1,16.8
						C258.3,203,244.3,203.1,244.3,203.1z"/>
				</g>
				<g>
					<path fill="#FFFFFF" d="M257.8,186.3c0.1-16.7-13.5-16.8-13.5-16.8s-13.6,0-13.5,16.8c0,15.4,11.5,16.7,13.3,16.8
						c0.1,0,0.2,0,0.2,0S257.7,203,257.8,186.3z M251.9,195.5c-0.8,2.3-1.9,4-3.4,5.1c-1.2,0.8-2.6,1.2-4.3,1.2
						c-2.5,0-4.5-0.9-5.9-2.9c-2-2.7-3-6.9-3-12.7c0-4.8,0.6-8.5,2-11.1c1.6-3.1,3.9-4.7,7-4.7c1.7,0,3.1,0.5,4.4,1.4
						c1.3,0.9,2.3,2.5,3.2,4.7c0.8,2.2,1.2,5.5,1.2,9.9C253.1,190.2,252.7,193.2,251.9,195.5z"/>
				</g>
			</g>
			<g>
				<path fill="#FFFFFF" d="M204.2,172.6c1.8-1.2,3.7-1.8,5.8-1.8c2.5,0,4.7,0.8,6.7,2.4c2,1.6,3.4,3.9,4.1,7h1v-11.6h-1
					c-0.1,0.9-0.4,1.5-0.8,1.8c-0.4,0.4-0.8,0.6-1.4,0.6c-0.4,0-1.4-0.3-2.9-0.9c-2.6-1-5.1-1.5-7.5-1.5c-3.2,0-6.2,0.8-9.1,2.4
					c-2.9,1.6-5.1,3.8-6.8,6.7c-1.7,2.9-2.5,5.9-2.5,9.1c0,3,0.8,5.9,2.3,8.6c1.5,2.7,3.7,4.8,6.4,6.2c2.8,1.4,6,2.2,9.5,2.2
					c2.7,0,5.1-0.5,7.1-1.3c2-0.9,4-2.3,5.9-4.3v-2.9c-2,2.3-3.8,3.9-5.6,4.8c-1.7,0.9-3.7,1.4-5.8,1.4c-2.6,0-4.7-0.6-6.3-1.9
					c-1.6-1.3-2.8-3.1-3.6-5.6c-0.8-2.5-1.1-5.2-1.1-8.2c0-3,0.5-5.8,1.6-8.3C201.2,175.4,202.5,173.8,204.2,172.6z M194.6,186.1
					c0.3,11.9,7.2,16.2,14,16.4c-7.1,0.1-14.2-3.9-14.5-16.3c-0.3-13.3,7.6-17.1,14.7-16.9C201.9,169.5,194.3,173.3,194.6,186.1z"/>
			</g>
		</g>
		<g>
			<g>
				<g>
					<g>
						<path fill="#FFFFFF" d="M156.2,29l-1.2,5.6l1.2,2l1.2-2L156.2,29z M156.1,35.9l-0.8-1.3l0.8-4.7l0.2,4.8L156.1,35.9z"/>
					</g>
					<g>
						<polygon fill="#FFFFFF" points="174.6,98 175.4,97.3 176.2,98 176.7,97.5 175.9,96.7 176.7,95.9 176.2,95.4 175.4,96.2 
							174.6,95.4 174.1,95.9 174.9,96.7 174.1,97.5 						"/>
					</g>
					<g>
						<polygon fill="#FFFFFF" points="176.4,112.6 175.5,113.5 174.7,112.6 174.1,113.2 175,114 174.1,114.9 174.7,115.4 
							175.5,114.6 176.4,115.4 177,114.9 176.1,114 177,113.2 						"/>
					</g>
					<g>
						<polygon fill="#FFFFFF" points="134.3,98.1 135.2,97.2 136.1,98.1 136.7,97.5 135.8,96.6 136.7,95.7 136.1,95.1 135.2,96 
							134.3,95.1 133.7,95.7 134.6,96.6 133.7,97.5 						"/>
					</g>
					<g>
						<polygon fill="#FFFFFF" points="136.5,114.9 135.6,114 136.5,113.1 135.9,112.5 135,113.4 134.1,112.5 133.5,113.1 134.4,114 
							133.5,114.9 134.1,115.5 135,114.6 135.9,115.5 						"/>
					</g>
					<g>
						<polygon fill="#FFFFFF" points="137.7,130.7 136.9,131.4 136.2,130.7 135.7,131.2 136.4,131.9 135.7,132.7 136.2,133.2 
							136.9,132.4 137.7,133.2 138.2,132.7 137.4,131.9 138.2,131.2 						"/>
					</g>
					<g>
						<polygon fill="#FFFFFF" points="174.5,130.5 173.7,131.4 172.9,130.5 172.3,131.1 173.1,131.9 172.3,132.7 172.9,133.3 
							173.7,132.5 174.5,133.3 175.1,132.7 174.3,131.9 175.1,131.1 						"/>
					</g>
					<g>
						<polygon fill="#FFFFFF" points="156.1,142.2 155.2,143.1 154.4,142.2 153.8,142.8 154.6,143.7 153.8,144.6 154.4,145.2 
							155.2,144.3 156.1,145.2 156.7,144.6 155.8,143.7 156.7,142.8 						"/>
					</g>
					<g>
						<path fill="#FFFFFF" d="M157.2,91.9c2-1.1,3.9-5.1,7.1-4.3c-3.9-1.5-4.1-1.7-4.2-3.9c-0.8,1-2.2,2.8-4.7,3.2
							C157.7,88.6,157.9,89.8,157.2,91.9z"/>
					</g>
					<g>
						<path fill="#FFFFFF" d="M151,92.7c-1.2,1.3-2.5,2.1-3.8,2.2c1.3-4.5,4.9-7.1,6.2-8c-0.5,0.1-1.1-0.2-1.4-0.3
							c-2.6,2.4-3.8,4.1-5.6,7.7c-0.2,0.4-0.5,1.1-1,1.4C146.5,95.8,149.3,95.6,151,92.7z"/>
					</g>
					<g>
						<path fill="#FFFFFF" d="M152.3,85.9c0.2,0.2,0.9,0.2,1.3,0.2c-0.3-1.1,0.2-3.2,0.8-3.9c-1.1,0.6-2.2,0.2-2.3,0.3
							C152.5,82.7,152.5,84.8,152.3,85.9z"/>
					</g>
					<g>
						<path fill="#FFFFFF" d="M149.8,92.3L149.8,92.3c0,0.3,0.2,0.5,0.4,0.5c0.2,0,0.4-0.2,0.4-0.5c0-0.2-0.2-0.4-0.4-0.4
							C150.1,92,149.9,92.1,149.8,92.3z"/>
					</g>
					<g>
						<path fill="#FFFFFF" d="M148.4,93.6L148.4,93.6c0,0.3,0.1,0.6,0.4,0.6c0.2,0,0.4-0.2,0.4-0.5c0-0.2-0.2-0.4-0.4-0.4
							C148.6,93.3,148.4,93.4,148.4,93.6z"/>
					</g>
					<g>
						<path fill="#FFFFFF" d="M152.2,91.4c-0.2,0-0.3,0.1-0.3,0.2c-0.1,0.1-0.1,0.2-0.1,0.2c0,0.2,0.2,0.4,0.4,0.4
							c0.2,0,0.4-0.2,0.4-0.4C152.6,91.6,152.4,91.4,152.2,91.4z"/>
					</g>
					<g>
						<path fill="#FFFFFF" d="M154.1,92c0,0.1,0,0.1,0,0.2c0,0.2,0.2,0.4,0.4,0.4c0.2,0,0.4-0.2,0.4-0.4c0-0.3-0.2-0.4-0.4-0.4
							C154.3,91.7,154.1,91.8,154.1,92z"/>
					</g>
					<g>
						<path fill="#FFFFFF" d="M156.5,91.2c-0.2,0-0.3,0.1-0.3,0.2c0,0-0.1,0.1-0.1,0.2c0,0.1,0.2,0.4,0.4,0.4c0.2,0,0.5-0.3,0.5-0.4
							C156.9,91.3,156.7,91.2,156.5,91.2z"/>
					</g>
					<g>
						<path fill="#FFFFFF" d="M156.1,77.1c0.2,0,0.4-0.2,0.4-0.5c0-0.2-0.2-0.5-0.4-0.5c-0.2,0-0.3,0.1-0.4,0.3c0,0,0,0.1,0,0.2
							C155.7,76.9,155.9,77.1,156.1,77.1z"/>
					</g>
					<g>
						<path fill="#FFFFFF" d="M161.5,70.1c0.5,0.5,0.9,0.8,1.9,1.4c-0.6-0.4-1.7-1.7-2.3-2.4c-0.2,2.5,1.1,4,1.5,5.7
							C162.1,72.2,161.3,71.3,161.5,70.1z"/>
					</g>
					<g>
						<path fill="#FFFFFF" d="M162.2,66.6c0.7,0.7,1,1.8,2.4,3.7c-1-1.2-1-3.5-3-4.2c0.4,0.8,1,2.3,1.2,3.1
							C162.5,67.8,162.5,67.6,162.2,66.6z"/>
					</g>
					<g>
						<path fill="#FFFFFF" d="M166.6,86.1c4.5-1.1,4.1,4.3,8.9,4.5c-2.9-1.5-3.5-2.6-4.5-4.3c4.4,1.9,7.6,4.9,11.4,2.7
							C176.4,90,169.9,82.9,166.6,86.1z"/>
					</g>
					<g>
						<path fill="#FFFFFF" d="M187.5,108.7c-0.5,0.6-0.8,3.2-1,4.7c-0.8-1.2-0.5-4.2-0.9-5.4c-0.2,4.6,0.5,8.7,3.7,14.8
							C187.8,118.9,186.5,113.3,187.5,108.7z"/>
					</g>
					<g>
						<path fill="#FFFFFF" d="M195.5,129.1c1.4-2.7,0.6-5.9,0.2-7.6c9.5-3.7-0.1-13.4-0.9-16.6c-0.9-1.3-2.4-5.2,0.2-12
							c2.1-8.7-6.3-4.7-7.7-4.9c2.5-1.2,2.7-3.9,2.4-5.8c-1.3,1.5-3,1.7-3.8,1.9c0.9-1.1,1.5-3.4,1.6-4.5c-3.4,3.7-7.4,2.2-9.7,1.6
							c-4.5-1.3-5.9-0.7-7.9,0c-4.9,2.3-5.2,3.5-6.7,4.4c-0.6-0.5-1.2-1-1.7-1.3c-0.4-0.3-0.7-0.5-0.9-0.7c0.1-0.6,0-1.2-0.5-1.5
							c-0.1-0.2,0.2-0.7,0.5-1.3c0.3-0.3,0.8-0.9,1.6-2c0.1-0.2,0.2-0.4,0.3-0.6c0.6,0.6,1.2,0.9,1.7,1l0.5,0.1l-0.3-0.5
							c-0.2-0.3-0.3-0.7-0.4-1.1c0.1,0.1,0.2,0.1,0.3,0.2l0.9,0.4l-0.4-0.7c-0.6-1.1-0.7-1.6-0.7-2c0-0.1,0-0.1,0-0.2
							c0-0.1,0-0.1,0-0.2c0-0.2,0-0.5-0.1-0.8c0.2,0.1,0.3,0.2,0.6,0.2l0.5,0.1l-0.3-0.4c-0.6-0.9-0.6-1.2-0.6-1.5
							c0-0.1,0-0.1,0-0.2c0.1,0.1,0.3,0.1,0.4,0.2c0.4,0.2,1.2,0.9,1.8,1.5c0,0,0-0.6-0.1-0.8c-0.1-0.2-0.2-0.6-0.4-0.8
							c0.1,0.1,0.3,0.2,0.4,0.2c0.2,0.1,0.4,0.2,0.6,0.4l0.5,0.7l-0.1-0.8c-0.1-0.5-0.2-0.8-0.6-1.4c0.1,0,0.6,0.2,0.6,0.2l0.6,0.2
							c-1-0.5-1.7-2.5-2-3.7c-0.5-2-1.1-4.3-4.4-4.4c0.3-0.4,0.4-0.9,0.4-1.3c0-0.5-0.2-0.9-0.5-1.4c-1-1.4-3.3-2.3-4.8-1.8l0,0.5
							c0.1,0,0.2,0,0.3,0.1c-0.4-0.1-0.8,0-1,0.1l-0.6,0.2l0.4,0.3c0,0,0.1,0,0.1,0.1c-0.5,0.1-1.2,0.4-1.4,1.2c0,0-0.1,0-0.1,0
							c-0.7-0.3-2.5-0.8-4.7,2.1l-0.1,0.2l0.2,0.1c0.3,0.2,0.5,0.3,0.8,0.3c-0.4,0.5-0.7,1-1,1.4l-0.6,1l0.2,0.1
							c0.4,0.2,0.9-0.1,1.4-0.5c-0.1,0.2-0.1,0.4-0.1,0.6c0,0.1,0,0.2,0,0.3l0.1,0.4l0.3-0.3c0.3-0.3,0.4-0.4,0.7-0.4
							c0.2-0.1,0.5-0.1,0.9-0.4c0,0.1,0.1,0.2,0.1,0.3l0.2,0.4l0.2-0.4c0.2-0.5,0.5-0.6,1.2-0.8c0,0,0,0,0.1,0c0.9,0.4,1.5,0,2-0.3
							l0.5-0.3c0.1-0.1,0.2-0.1,0.2-0.1c0,0,0,0,0,0.1c0,0.2-0.1,0.4-0.2,0.6c-0.4,0.4-0.6,0.9-0.7,1.3c-0.1,0-0.3,0-0.4,0
							c-1,0-5.1,0.7-7.6,4.3c-0.7,0.2-0.9,0.7-0.9,0.9c0,0.2,0,0.4,0.1,0.5c0,0.1,0,0.2,0,0.3c-0.8,1.8-0.7,5.1,1.1,7.3
							c0.1,0,0.2,0,0.3,0c0.2,0.2,0.4,0.4,0.6,0.5c0.1,0.6,0.4,0.9,1,0.9c0.1,0,0.3,0,0.4,0c0.1,0,0.2,0,0.2,0c0,0,0,0,0.1,0
							c0.4,0.1,0.8,0.2,0.9,0.4c0.3,0.4,0.5,1.7,0.1,2.6c-0.2,0-0.4,0.2-0.4,0.3c-0.1,0.2-0.1,0.4,0,0.6c-1.3,1.1-2.2,2.2-2.9,3.3
							c-1.9,0-4.3-0.1-6.7,0.5c-8.4,3.6-8.9,1.6-13.4,2.5c-4.3,2.3,1,6.3-2.9,11.7c-0.6-5.9-1.6-3.9-2.3-8.9
							c-3.2,5.4,9.6,17.1,4.2,21.4c0,0.3-5.5,4.6-2.6,10.2c0.5-2.3-0.1-4,2.5-6.6c-1.2,5.6,0.1,7,1.3,8.7c6.3,6,2.3,8.3,0.4,9.3
							c0.2-2.6,1.2-4.7-3.4-9c6.1,9.7-0.3,16.6-5,11.1c5.2-8.6,0.4-6.1,0.1-15.7c-0.5,2.3-0.3,3.9,0.1,6c0.9,7.3-5.8,7.6-7.7,5.4
							c3.8-1.3,4.4-3.4,3.5-6.5c-4.7-7.2,5.7-15,4.4-23.2c-0.3,6.2-4.5,8.3-5.5,13.4c-2.7-2.7-3.2-4-1.9-7.7
							c2.9-5.9,4.9-9.2,3.9-15.8c1.8,1.8,0.7,8.8,1.3,11.5c-0.1-1.7,1.5-1.3,0.5-7.7c1,1.7,1.2,1.1,2.9,5.5
							c1.8-4.2-15.4-21.4,4.2-16.4c-3.6-0.8-4.3-3.7-4.6-4.9c7.3,5.1,10,0,14.3-0.6c-6.5,0.8-9.6,4.1-11.1-1.5
							c4.3,2.8,10.2-3.1,16.2,0.1c6.5,3.4,4,3.9,8.8,5.1c0.2-0.3,0.4-0.5,0.6-0.6c-5.4-1.3-3-2.2-10-5.5c-2-0.7-3.4-1.3-7.9,0
							c-2.2,0.7-6.2,2.2-9.6-1.6c0.1,1.1,0.7,3.4,1.6,4.5c-0.9-0.2-2.5-0.5-3.9-1.9c-0.3,1.9-0.1,4.6,2.4,5.8
							c-1.4,0.2-9.7-3.8-7.6,4.9c2.6,6.8,1.1,10.7,0.2,12c-0.8,3.2-10.4,12.9-0.9,16.6c-0.3,1.8-1.2,4.9,0.2,7.6
							c0.6,2.9,0.2,5.3-6.3,6c1.8,2,9.4,8,12.7-2.2c1.2,1.8-2,6.4-3.7,7.4c3.5,6.7,10.9,1.6,10.4-0.6c2.6-1,4.1-2,4.8-2.9
							c4.5,7.7,12.8,12.9,22.3,12.9c9.4,0,17.7-5.2,22.2-12.8l0,0c0.7,0.9,2.2,1.8,4.8,2.9c-0.5,2.2,7,7.3,10.4,0.6
							c-1.7-1-4.9-5.6-3.7-7.4c3.3,10.2,10.9,4.2,12.7,2.2C195.3,134.5,194.9,132.1,195.5,129.1z M157.1,66.5
							c0.1-0.2,0.3-0.5,0.3-0.8c0-0.2,0-0.3-0.1-0.4c-0.1-0.1-0.3-0.3-0.8-0.1l-0.5,0.3c-0.5,0.3-0.9,0.6-1.6,0.2l-0.1,0l-0.2,0.1
							c-0.5,0.2-0.9,0.3-1.2,0.6v-0.5l-0.4,0.3c-0.5,0.4-0.8,0.5-1,0.5c-0.2,0-0.3,0.1-0.4,0.2c0-0.1,0.1-0.3,0.2-0.4
							c0.1-0.2,0.1-0.3,0.1-0.5v-0.5l-1,0.7c-0.1,0.1-0.3,0.2-0.5,0.3c0.1-0.1,0.2-0.3,0.2-0.3c0.4-0.6,0.8-1.3,1.3-1.8l0.1-0.1
							c1.1-0.2,1.6-0.7,2.1-0.4c-0.3,0.4-0.5,0.7-0.9,1.8c0.2-0.6,1-1.5,1.5-1.9c-1-0.4-1.9,0.3-2.6,0.5l0.4-0.4l-0.6,0.1
							c-0.4,0.1-0.6,0.1-0.8,0c1.9-2.4,3.3-1.9,4-1.7l0.5,0.2l0,0c-1,0.6-0.7,1.8-1.2,2.9c0.8-0.3,1.1-0.2,2.3-1.2
							c0.1,0.2,0.1,0.6,0.4,0.7c0.2-0.2,0.7-0.7,0.8-1.1c0.5-0.2,1.7,0.5,0.1,2.3c1-0.7,2.1-3.2,0-2.9c-0.1,0.5-0.2,0.8-0.8,1.2
							c-0.4-0.1-0.4-0.7-0.3-0.9c-0.4,0.7-1.3,1.2-1.9,1.3c0.4-1.2-0.4-2,1.4-2.6c-0.2,0-0.4,0-0.6,0l0-0.1c0.3-1.2,1.4-1,1.7-1
							l0.8,0.2l-0.6-0.6c-0.1-0.1-0.2-0.1-0.2-0.2c0.3,0,0.6-0.1,1,0.2l0.5,0.3l-0.1-0.6c0-0.1-0.1-0.4-0.3-0.6
							c1.3-0.1,2.9,0.7,3.6,1.7c0.4,0.6,0.7,1.5-0.2,2.6l-0.3,0.4l0.4,0c-0.2,0.4-0.7,1-1.2,1.2c0.2,0,0.8,0,0.9,0.2
							c-1.2,0.1-1.2,0.7-1.7,0.8c0.2,0.2,0.5,0.6,0.3,0.9c-1.4,0.3-1.7,1.1-1.9,1.3c0.6-0.7,2.1-1.4,3.1-0.2c-0.1-0.2-0.9-0.8-1.1-1
							c0.1-0.3-0.1-0.6-0.1-0.9c0.5-0.5,1.2-0.9,1.9-0.8c-0.1-0.4-0.4-0.4-0.7-0.6c0.5-0.8,1.8-0.9,3.2-0.5c1.2,0.7,1.6,2.1,1.9,3.5
							c0.2,0.9,0.5,1.9,1,2.6c-0.1,0-0.9-0.3-0.9-0.3l0.5,0.6c0.4,0.5,0.6,0.8,0.7,1.1c0,0-0.1,0-0.1-0.1c-0.4-0.2-1-0.5-1.8-1.7
							c0,0,0,0.2,0,0.3c0,0.2,0.2,1,0.2,1c0.1,0.2,0.3,0.4,0.4,0.6c-0.2-0.1-0.4-0.2-0.6-0.3c-0.3-0.2-0.8-0.2-1.3-0.6
							c0.4,0.6,0.2,0.9,0.2,1.1c0,0.2,0,0.5,0.3,1c-0.2-0.2-0.6-0.4-1.1-0.9c0.9,1.3,0.7,1.8,0.7,2.3c0,0.1,0,0.1,0,0.2
							c0,0.1,0,0.1,0,0.2c0,0.4,0,0.8,0.4,1.5c-0.2-0.1-0.7-0.1-0.8-0.5c0,0.5,0.1,0.8,0.2,1.2c0,0.2,0.1,0.4,0.2,0.6
							c-0.9-0.5-2.2-1.7-2.5-4.2l0-0.3l-0.5,0.1c-0.1,0-0.2,0-0.3,0.1c-0.1-0.3-0.2-0.6-0.2-0.9l-0.3-1.2l-0.3,0.2l-0.3,0.2
							c0,0,0,0-0.1,0c-0.1-0.2-0.2-0.7-0.2-1c0-0.6-0.1-1.2-0.4-1.5c-0.1-0.1-0.2-0.1-0.5-0.3c-0.6-0.3-1.8-0.7-2-1.6
							c0-0.1,0-0.2,0-0.3C156.5,67.5,156.7,67,157.1,66.5z M148.4,80c-1.4-1.2-1.4-4.4-0.5-6.2c0.2-0.3,0.6-0.5,0.9-0.5
							c3.5,0.7,4.1,1.2,6.3,2.6c-0.2,0.5-0.1,1,0.2,1.2C154.1,77.9,151.2,79.2,148.4,80z M149.5,81.3c-0.2-0.2-0.3-0.4-0.5-0.6
							c3.9-1.3,5.2-2.5,6.2-3.3c0.1,0.2,0.2,0.2,0.2,0.2C153.6,79.8,151.7,80.5,149.5,81.3z M155.3,76.7c0-0.2,0-0.2,0-0.3
							c0.2-0.3,0.4-0.5,0.8-0.5c0.4,0,0.8,0.4,0.8,0.9c0,0.4-0.4,0.8-0.8,0.8C155.6,77.4,155.3,77.1,155.3,76.7z M151.6,86.3
							c-0.2-0.2-0.4-0.7,0.2-0.8c0.5-1,0.3-2.5-0.1-3c-0.2-0.3-0.7-0.5-1.1-0.5c0,0-0.1,0-0.1,0c0,0-0.1,0-0.2,0
							c2.2-1,3.8-1.8,5.4-4.1c2.6,0.4,1.6-3.6-0.4-2.2c-1.6-1.5-4.1-3.1-7.2-3.7c2.5-3.5,6.6-4.2,7.4-4.2c0.1,0,0.2,0,0.3,0
							c0,0,0,0.1,0,0.2c0,0.1,0,0.2,0,0.3c-1.4,0.2-4.9,1.2-6.6,3.5c0.9,0.2,1.5,0.4,2,0.7c0.5-1.9,2.5-3.4,4.6-4.1
							c0.3,1.1,1.6,1.6,2.2,1.9l0.3,0.1v0c0.2,0.2,0.2,0.7,0.2,1.2c0,0.7,0.1,1.5,0.5,1.7l0.1-0.1l0.1,0c0,0,0.1-0.1,0.2-0.1
							c0.1,0.2,0.1,0.5,0.1,0.5c0.1,0.4,0.2,0.8,0.4,1.3l0.1,0.3l0.2-0.2c0.1-0.1,0.2-0.1,0.4-0.1h0c0.1,0.8,0.3,1.4,0.6,2
							c-0.5,2-1.5,3.8-3.2,4.6c1.1,1.3,0.5,2.6-3,4.9c2.2-0.6,3.9-2,4.7-3.9c0.4,0.2,0.5,0.9,0.3,1.4c1,0.8,3.4,2.3,4.7,4.1
							c0.3,0.3,0.5,0.5,0.7,1c0.3,0.7-0.2,2-2.4,2c-0.2,0-0.4,0-0.6,0c0,0-0.1-0.1-0.1-0.1h0.1c4.4-0.2,1.8-4.9-2.5,0.1
							c-2.1,2-3.3,3.3-6,3.3c-0.8,0-1.7-0.1-2.8-0.3c-1.6,2.2-3.7,3.2-5.5,3.2c-0.6,0-1.2-0.1-1.7-0.3c-0.2-0.1-0.5-0.9,0.4-0.9
							c0.1,0,0.1,0,0.2,0C146.9,93,147.7,89.5,151.6,86.3z M184.1,105.7c-0.6,1.4-2.6,4.8-3.1,8.1V93c-0.5,0-1.1,0-1.7,0
							c2-0.1,3.9-0.2,4.1,2.3C182.9,99.4,181.7,101.8,184.1,105.7z M180.9,115.1c0-0.1,0-0.1,0-0.2C180.9,115,180.9,115,180.9,115.1
							z M180.9,114.6c0-0.1,0-0.1,0-0.2C180.9,114.5,180.9,114.6,180.9,114.6z M181,114.2c0-0.1,0-0.3,0-0.4
							C181,113.9,181,114.1,181,114.2z M181,116.6c0-0.1,0-0.1,0-0.1C181,116.5,181,116.5,181,116.6z M180.9,116.2
							C180.9,116.1,180.9,116.1,180.9,116.2C180.9,116.1,180.9,116.1,180.9,116.2z M181,124.4v-7.5c0.2,1.1,0.7,2.1,1.6,2.9
							c1.9,6.6-2.5,10.3-4.6,13.1c0.6-0.9,1.5-1.8,2.3-2.9C180.8,128.2,181,126.3,181,124.4z M160.6,90.7L160.6,90.7
							c-0.2,0.2-0.5,0.4-0.7,0.6C160.2,91.1,160.4,90.9,160.6,90.7z M162.5,90.7L162.5,90.7L162.5,90.7z M168.1,90.6
							c-0.3,0-0.5-0.1-0.7-0.1h-2.1c-0.1,0-0.2,0.1-0.2,0.1c0.2-0.1,0.3-0.2,0.5-0.3C166.3,90.3,167.2,90.4,168.1,90.6z M165,90.7
							c-0.1,0-0.2,0.1-0.3,0.1C164.8,90.7,164.9,90.7,165,90.7z M164.7,90.8c-0.1,0-0.2,0.1-0.3,0.1
							C164.5,90.8,164.6,90.8,164.7,90.8z M164.3,90.9c-0.1,0-0.2,0-0.4,0C164.1,90.9,164.2,90.9,164.3,90.9z M163.8,90.9
							c-0.2,0-0.3,0-0.5,0C163.5,91,163.7,91,163.8,90.9z M147.7,90.3c0,0.1-0.1,0.1-0.1,0.2h-4.4c-0.2,0-0.4,0-0.7,0.1
							C144.5,90.2,146.2,90.3,147.7,90.3z M131.8,93.1c-0.7,0-1.5-0.1-2.2,0C130.3,93,131.1,93,131.8,93.1z M126.5,105.7
							c2.5-3.9,1.2-6.3,0.7-10.3c0.2-1.8,1.2-2.3,2.5-2.3v21.2v0C129.2,110.8,127.1,107.1,126.5,105.7z M127.9,119.8
							c1-0.9,1.5-2.1,1.7-3.3v7.7c0,2,0.3,4,0.7,5.9c0.6,0.7,1.1,1.4,1.6,2C129.8,129.4,126.2,125.8,127.9,119.8z M132.8,133.3
							C132.9,133.3,132.9,133.4,132.8,133.3C132.9,133.4,132.9,133.3,132.8,133.3z M132,132.2c0.1,0.1,0.1,0.1,0.2,0.2
							C132.1,132.3,132.1,132.3,132,132.2z M132.2,132.5c0.1,0.1,0.1,0.1,0.1,0.2C132.3,132.6,132.3,132.5,132.2,132.5z
							 M132.4,132.7c0.1,0.1,0.1,0.2,0.1,0.2C132.5,132.9,132.5,132.8,132.4,132.7z M132.7,133c0,0,0.1,0.1,0.1,0.1
							C132.7,133.1,132.7,133.1,132.7,133z M133,133.5C133,133.6,133,133.6,133,133.5C133,133.6,133,133.6,133,133.5z M133.5,136.2
							L133.5,136.2L133.5,136.2z M133.1,133.7C133.1,133.8,133.1,133.8,133.1,133.7C133.1,133.8,133.1,133.8,133.1,133.7z
							 M133.2,133.9C133.2,133.9,133.2,134,133.2,133.9C133.2,134,133.2,134,133.2,133.9z M133.5,134.5
							C133.5,134.5,133.5,134.5,133.5,134.5C133.5,134.5,133.5,134.5,133.5,134.5z M133.6,134.7
							C133.6,134.7,133.6,134.7,133.6,134.7C133.6,134.7,133.6,134.7,133.6,134.7z M133.6,134.9
							C133.6,134.9,133.6,134.9,133.6,134.9C133.6,134.9,133.6,134.9,133.6,134.9z M133.6,135.1L133.6,135.1L133.6,135.1z
							 M133.6,135.7L133.6,135.7L133.6,135.7z M133.6,135.9L133.6,135.9L133.6,135.9z M133.5,136C133.5,136,133.5,136.1,133.5,136
							C133.5,136.1,133.5,136.1,133.5,136z M155.4,145.6c-12.1,0.1-22.2-9.9-22.2-21.8V94.5h12.1c0,0,0,0,0-0.1
							c-0.2,0.3-0.3,0.5-0.5,0.8c0,0-0.1,0-0.1,0c-0.7,0-0.9,0.5-0.9,0.6c-0.1,0.3,0.1,0.8,0.4,0.9c0.5,0.2,1.1,0.3,1.8,0.3
							c1.9,0,3.7-0.9,5.1-2.5h26.4l0.1,29.4C177.5,135.8,167.5,145.6,155.4,145.6z M146.2,93c-0.1,0.1-0.1,0.2-0.2,0.3
							C146.1,93.2,146.1,93.1,146.2,93z M145.8,93.7c-0.1,0.1-0.1,0.2-0.2,0.3C145.7,93.9,145.7,93.8,145.8,93.7z M177.5,133.7
							c0,0.1,0,0.1-0.1,0.1C177.5,133.8,177.5,133.8,177.5,133.7z M177.4,133.9c0,0.1-0.1,0.2-0.1,0.2
							C177.3,134.1,177.4,134,177.4,133.9z M177.2,134.2c0,0,0,0.1-0.1,0.1C177.2,134.3,177.2,134.3,177.2,134.2z M177.2,134.5
							c0,0,0,0.1,0,0.1C177.1,134.5,177.1,134.5,177.2,134.5z M177.1,134.7C177.1,134.7,177.1,134.7,177.1,134.7
							C177.1,134.7,177.1,134.7,177.1,134.7z M177,134.9C177,134.9,177,135,177,134.9C177,135,177,134.9,177,134.9z M177,135.1
							C177,135.1,177,135.2,177,135.1C177,135.2,177,135.1,177,135.1z M177,135.3L177,135.3L177,135.3z M177.4,136.7
							C177.4,136.7,177.5,136.7,177.4,136.7C177.5,136.7,177.4,136.7,177.4,136.7z M177,135.7L177,135.7L177,135.7z M177,135.8
							C177,135.8,177,135.9,177,135.8C177,135.9,177,135.9,177,135.8z M177.1,136C177.1,136,177.1,136.1,177.1,136
							C177.1,136.1,177.1,136.1,177.1,136z M177.2,136.2C177.2,136.3,177.2,136.3,177.2,136.2C177.2,136.3,177.2,136.3,177.2,136.2z
							 M177.3,136.4C177.3,136.5,177.3,136.5,177.3,136.4C177.3,136.5,177.3,136.5,177.3,136.4z M177.7,133.4c0-0.1,0.1-0.1,0.1-0.2
							C177.8,133.3,177.8,133.3,177.7,133.4z M177.6,133.6c0,0,0-0.1,0.1-0.2C177.6,133.5,177.6,133.6,177.6,133.6z M178,133
							c0,0.1-0.1,0.1-0.1,0.2C177.9,133.1,178,133.1,178,133z M190.1,130.6c0.4-2.2,0.6-3.8,0.1-6c-0.3,9.6-5.2,7,0.1,15.7
							c-4.7,5.5-11.1-1.4-5-11.1c-4.6,4.3-3.6,6.5-3.4,9c-1.8-0.9-5.9-3.3,0.4-9.3c1.2-1.6,2.5-3.1,1.3-8.7c2.6,2.6,2,4.3,2.5,6.6
							c2.9-5.6-2.6-9.9-2.6-10.2c-5.5-4.3,7.3-16,4.2-21.4c-0.7,4.9-1.7,2.9-2.3,8.9c-3.9-5.4,1.4-9.4-2.8-11.7
							c-4.5-0.9-5,1.1-13.4-2.5c-1-0.3-2-0.4-3-0.4c0.1-0.3,0.1-0.6,0-0.8c-0.2-0.5-0.4-0.7-0.6-1c0,0-0.1-0.1-0.1-0.1
							c-0.4-0.5-0.8-1-1.4-1.5c1-0.7,1.5-1.7,5.6-3.8c6-3.2,12,2.6,16.2-0.1c-1.6,5.6-4.6,2.3-11.1,1.5c4.2,0.6,6.9,5.7,14.3,0.6
							c-0.2,1.2-0.9,4.1-4.6,4.9c19.6-5,2.5,12.1,4.2,16.4c1.7-4.4,1.9-3.8,2.9-5.5c-0.9,6.4,0.6,6,0.5,7.7
							c0.6-2.7-0.5-9.7,1.3-11.5c-1.1,6.6,0.9,10,3.9,15.8c1.3,3.7,0.8,5-1.8,7.7c-1-5.2-5.2-7.3-5.5-13.4c-1.2,8.2,9.1,16,4.4,23.2
							c-0.9,3.1-0.2,5.2,3.6,6.5C195.9,138.2,189.2,137.9,190.1,130.6z"/>
					</g>
					<g>
						<path fill="#FFFFFF" d="M135.1,90.6c4.8-0.2,4.4-5.6,8.9-4.5c-3.2-3.2-9.8,3.9-15.8,2.9c3.8,2.2,6.9-0.9,11.3-2.7
							C138.7,88,138.1,89.1,135.1,90.6z"/>
					</g>
					<g>
						<path fill="#FFFFFF" d="M124.9,108c-0.3,1.3-0.1,4.2-0.8,5.4c-0.2-1.5-0.5-4.2-1-4.7c1,4.6-0.2,10.2-1.9,14.1
							C124.4,116.6,125.1,112.5,124.9,108z"/>
					</g>
					<g>
						<path fill="#FFFFFF" d="M162.1,51.7L162.1,51.7C162.1,51.5,162.1,51.5,162.1,51.7z"/>
					</g>
					<g>
						<path fill="#FFFFFF" d="M145.7,119.5C145.8,119.5,145.8,119.5,145.7,119.5c0.2-0.1,0.2-0.2,0.2-0.3c0,0-0.2,0.1-0.3,0.2
							c-0.1,0.1-0.2,0.3-0.2,0.3C145.5,119.7,145.6,119.6,145.7,119.5z"/>
					</g>
					<g>
						<path fill="#FFFFFF" d="M164.8,119.3c-0.1-0.2-0.2-0.2-0.3-0.2c0,0,0.1,0.2,0.2,0.3c0.2,0.1,0.3,0.1,0.3,0.1
							C165.1,119.6,165,119.5,164.8,119.3C164.9,119.3,164.9,119.3,164.8,119.3z"/>
					</g>
					<g>
						<path fill="#FFFFFF" d="M173.5,98.5h-36.6v24.9c0,10,8.3,18.3,18.4,18.3c10-0.1,18.2-8.3,18.2-18.2V98.5z M159.1,138.9
							c-2.4-1.5-2.2-1.3-3.9-1.8c-1.7,0.5-1.5,0.3-3.9,1.8c0.2-0.8,2.2-1.8,2.2-2.3c-0.8-0.5-2.4,0.1-3.3,0.7
							c0.3-0.7,1.1-1.2,2.7-1.9c0.6,0,1.2-0.2,1.1-1.8c0-2.4,0-4.6,0-6.5c-0.1,0-0.1,0-0.2,0c-0.1,0.1-0.1,0.2-0.1,0.2
							c0.2,0.2,0.2,0.3,0.2,0.6c-0.3,0.2-0.4,0.1-0.5,0.2c-0.2,0.1,0,0.5,0.1,0.7c-0.2,0-0.4-0.1-0.6-0.1c-0.2,0-0.2,0-0.2,0.1
							c0.1,0.2,0.2,0.2,0.2,0.4c-0.2-0.1-0.3-0.2-0.6-0.2c-0.2,0-0.3,0-0.5-0.5c-0.2-0.2-0.2-0.3-0.2-0.4c-0.1-0.2-0.2-0.5-0.4-0.6
							c-0.1,0.1,0,0.2-0.2,0.3c-0.1-0.6-0.5-0.8-0.7-0.9c-0.5-0.5-1-0.5-1.2-0.5c-0.2-0.1-0.2-0.1-0.3-0.1c-0.1,0.1,0.1,0.5-0.1,0.5
							c-0.1-0.1-0.5-0.3-0.6-0.6c-0.2-0.2-0.1-0.7-0.2-0.7c-0.4,2.4-1.6,2.4-2.1,3.3c0.9-0.3,1-0.1,1.4-0.4c0.8-0.9,1.1-1.1,1.7-0.9
							c0.5,0.3,0.7,0.2,1.1,0.1c0.7-0.1,1,0.5,1.1,0.6c0.1,0.1,0.2,0.4,0.3,0.6c-0.1-0.1-0.5-0.3-0.9-0.2c-0.2,0.1-0.3,0.2-0.6,0.2
							c0.1,0.2,0.2,0.4,0.2,0.9c-0.1,0.2,0,0.5,0.1,0.8c-0.1,0-0.2-0.1-0.4-0.2c-0.1,0.2,0,0.5,0.1,0.7c-0.1,0-0.1-0.1-0.2-0.2
							c-0.2,0.1-0.2,0.5,0.2,0.4c0.5-0.1,1.4,0,1.7-0.5c0.2-0.1,0.3-0.3,0.5-0.5c0.2-0.1,0.4-0.2,0.5-0.3c0.2-0.1,0.2-0.2,0.5,0
							c0.1,0.1,0.2,0.2,0.2,0.2c0.2,0.2,0.3,0.1,0.5,0.3c-0.1,0-0.2,0-0.3,0c-0.1,0.2,0,0.2,0.1,0.4c0.1,0,0.2,0.1,0.3,0.2
							c-0.1,0.1-0.3,0.1-0.4,0.2c-0.1,0.1-0.1,0.1-0.2,0.2c0.1,0.4,0.4,0.2,0.5,0.3c0,0.1-0.1,0.2-0.2,0.2c-0.1,0-0.3,0.1-0.4,0.2
							c-0.3,0-0.3,0-0.6-0.1c-0.5,0-0.6-0.1-0.9-0.2c-0.5,0-0.7,0.2-1,0.3c-0.5,0.5-1,0.4-1.6,0.2c-0.8,0-0.9-0.2-0.7-0.7
							c0.1-0.2,0.2-0.4-0.1-0.8c-0.3-0.2-0.3-0.4-0.4-0.5c0,0.4,0.1,0.7,0.4,1.1c-0.3-0.1-0.5-0.2-0.6-0.6c-0.2-0.2-0.3-0.5-0.6-0.5
							c-0.3-0.1-0.5-0.2-0.8-0.2c0.1,0.1,0,0.2,0.1,0.2c0.5,0.5,0.8,1.2,0.3,2.2c0,0.2,0.2,0.6,0.4,0.9c0.2,0.6-0.1,1.2-0.2,1.9
							c-0.1-0.6-0.1-0.7-0.4-1.1c-0.2-0.1-0.2-0.4-0.4-0.4c-0.2,0.5-0.6,0.4-0.9,0.3c-0.4,0-0.5,0.3-0.5,0.4c0,0.1,0,0.6,0,0.8
							c0,0.2,0.2,0.4,0.8,0.4c0.2-0.1,0.3-0.1,0.5-0.1c0.2,0.1,0.2,0.1,0.4,0.2c0.1,0.2,0.2,0.5,0.2,0.7c-0.4-0.1-0.5-0.2-0.6,0.2
							c-0.1-0.2-0.2-0.1-0.2-0.1c-0.1-0.1-0.2,0.4-0.9-0.1c-0.1-0.4-0.6-0.5-0.8-0.5c-0.2,0-0.4-0.1-0.3-0.4c0.2-0.2,0.4-0.3,0.5-1
							c0.1-0.2,0-0.3,0-0.6c-0.2-0.2-0.2-0.8,0.4-0.7c0.3,0,0.8-0.3,0.6-0.8c0-0.4-0.3-0.5-0.5-0.9c-0.5-0.4-0.4-1.1-0.4-1.5
							c-1.7-0.2-1.9-2-2-2.5c-0.1-0.5,0.2-2.3,0.2-2.4c0-0.1,0.2-2.9-0.8-2.1c-0.1-0.2-0.4-0.5,0.1-0.8c-0.2-0.5-0.3-0.5-0.3-1.3
							c-0.1-0.4-0.1-1.2-0.4-1.6c0.3,0.1,0.8,0.6,1,1.5c0,0.6,0.2,0.9,0.4,1.2c0.7,0.8,0.5,1.5,0.5,2.3c-0.1,0.8-0.2,1.7-0.2,2.6
							c0,0.7,0.2,2.5,1.8,2.5c0.8-0.6,1.6-2.8,0.8-4.3c-0.1,0.2-0.3,0.3-0.6,0.2c0.1-0.7,0.1-0.7-0.5-1.3c-0.1-0.1-0.2-0.3-0.1-0.6
							c-0.1,0.2-0.6,0.4-0.8-0.1c0.1,0,0.4-0.2,0.2-0.7c-0.1-0.2-0.2-0.6,0-1.1c-0.5-0.2-0.5-0.6-0.5-0.9c0.2,0.1,0.5,0.3,0.7-0.2
							c0.1-0.1,0.2-0.2,0.2-0.3c-0.2-0.3-0.2-0.5-0.1-0.8c0.3,0.2,0.6,0.2,0.9-0.1c0.3-0.3,0.5-0.3,0.8-0.3c0.2,0,0.5,0,0.7,0
							c0.8-0.3,0.8,0,0.9,0.2c0.2,0,0.5,0.1,0.6,0.1c0.2-0.1,0.2,0.1,0.2,0.2c0,0.1,0,0.3,0,0.5c-0.1,0.4-0.3,0.5-0.4,0.5
							c-0.2,0-0.3,0.1-0.4,0.2c-0.1,0.1-0.1-0.2-0.3-0.2c-0.4-0.1-0.5,0.2-0.5,0.3c0,0.2,0,0.9,0.5,0.7c0-0.1,0-0.2-0.1-0.3
							c0.2,0,0.2,0.2,0.3,0.2c0.4,0.1,0.3,0.5,0.2,0.5c-0.1,0.4-0.6,0.2-0.7,0.2c-0.3-0.2-0.4,0.2-0.3,0.2c0.1,0.2,0.5,0.5,1.1,0.2
							c0.3-0.2,0.4-0.5,1.1-0.6c0.2,0,0.4-0.1,0.5-0.5c0.3,0.1,0.3,0.4,0.4,0.5c0.7,0.1,1.4-0.5,1.5-0.8c0.1-0.1,0.3,0,0.3,0.5
							c0.6-0.3,1-1.1,1.2-1.5c0-0.2,0.2-0.5,0.5-0.7c0.4-0.1,0.3,0,0.5,0c0.2-0.2,0.5-0.1,0.6,0c0.5-0.1,0.5,0.1,0.6,0.2
							c0.4,0.5,0.3,0.8,0.2,1.1c-0.1,0.1-0.1,0.2-0.2,0.3c0-0.1,0-0.3,0-0.4c-0.1,0-0.2,0-0.2,0c-0.1,0.2-0.1,0.4-0.2,0.5
							c-0.1-0.2,0-0.4-0.2-0.5h-0.1c-0.2,0-0.2,0.5-0.3,0.5c0-0.1-0.1-0.2-0.1-0.3c-0.1-0.1-0.2-0.1-0.2,0c-0.2,0.4-0.5,0.7-0.6,1.3
							c-0.1,0.2-0.1,0.5-0.2,0.7c-0.1,0.8-0.8,1-1.1,1.1c-0.1,0-0.2,0.1,0,0.2c0.3,0.2,0.6,0.3,0.8,0.7c0.2,0.5,0.7,0.6,1.1,0.9
							c-0.9,0.1-1.8-0.2-2.2-1c-0.1-0.1-0.2-0.2-0.2-0.2c-0.1,0.3,0.2,0.5,0.5,0.8c0.7,0.8,0.8,0.8,1.9,1.4c0.2,0,0.5,0.2,0.8-0.1
							c0.2,0,0.5-0.1,0.8,0.2c0,0.1,0,0.2,0.1,0.2c0.1-5.6,0.2-8.8,0.3-10.8c-0.2-0.2-0.4-0.3-0.7-0.6c-0.9,1.3-2.4-0.5-2.8-0.5
							c-0.3,0-0.8,0.5-1.4-0.1c-0.7,0-1.4,0.1-1.6-0.9c-0.5-0.4-1.3-0.3-1.2-1.9c-0.8-0.4-0.9-1.3-0.2-2.5c-1.5-1.4,0.2-3.3,0.9-3.6
							c0.1-0.5,0.1-1.2,1.3-1.2c0.2-1.7,2-1.3,2.2-1.3c0.1-0.3,0.8-1.3,1.9-0.6c0.4-1.3,2.4-0.9,2.6-0.4c0.2-0.5,2.2-0.9,2.6,0.4
							c1.1-0.8,1.8,0.2,1.9,0.6c0.2,0,2.1-0.4,2.2,1.3c1.3,0,1.3,0.8,1.3,1.2c0.6,0.2,2.2,2.2,0.8,3.6c0.7,1.2,0.5,2.1-0.2,2.5
							c0,1.6-0.7,1.5-1.3,1.9c-0.2,1-0.9,0.9-1.6,0.9c-0.6,0.5-1,0.1-1.4,0.1c-0.3,0-1.8,1.9-2.7,0.6c-0.3,0.2-0.5,0.4-0.7,0.5
							c0.2,2.6,0.4,7.6,0.4,17.3c-0.2,1.6,0.4,1.8,1,1.8c1.6,0.7,2.4,1.2,2.7,1.9c-0.9-0.6-2.5-1.2-3.3-0.7
							C156.9,137.1,158.8,138.1,159.1,138.9z M163.3,120.8c0.4-0.1,0.8-0.2,1.1,0.2c-0.5-0.2-1.5,0.2-1.9,0.2
							c-0.5-0.1-0.8-0.8-0.2-1.1C162,121.1,163.1,120.8,163.3,120.8z M169.7,120.9c-0.1,0.8-0.1,0.8-0.4,1.3
							c0.5,0.2,0.2,0.6,0.2,0.8c-1-0.8-0.8,1.9-0.8,2.1c0,0.1,0.1,1.9,0.1,2.4c-0.1,0.5-0.3,2.4-2,2.5c0.1,0.5,0.1,1.1-0.4,1.5
							c-0.2,0.3-0.5,0.5-0.5,0.9c-0.2,0.6,0.3,0.8,0.6,0.8c0.6-0.1,0.5,0.6,0.4,0.7c-0.1,0.3-0.1,0.5,0,0.6c0,0.7,0.2,0.8,0.5,1
							c0.1,0.3-0.2,0.4-0.4,0.4c-0.1,0-0.6,0.1-0.8,0.5c-0.8,0.5-0.9,0.1-0.9,0.1c-0.1,0-0.2-0.1-0.2,0.1c-0.2-0.3-0.3-0.2-0.7-0.2
							c0.2-0.2,0.2-0.6,0.3-0.7c0.2-0.2,0.2-0.2,0.4-0.2c0.2,0.1,0.3,0.1,0.5,0.1c0.5,0,0.7-0.2,0.8-0.4c0-0.2-0.1-0.7-0.1-0.8
							c0-0.1-0.2-0.4-0.5-0.4c-0.3,0.1-0.8,0.2-1-0.3c-0.1-0.1-0.2,0.3-0.3,0.4c-0.3,0.4-0.3,0.5-0.4,1.1c-0.1-0.7-0.4-1.3-0.2-1.9
							c0.1-0.3,0.3-0.7,0.3-0.9c-0.4-1-0.2-1.7,0.3-2.2c0.1-0.1,0.1-0.2,0.1-0.2c-0.3,0-0.5,0.1-0.7,0.2c-0.3,0.1-0.5,0.3-0.6,0.5
							c-0.2,0.4-0.4,0.5-0.6,0.6c0.3-0.4,0.3-0.7,0.3-1.1c-0.2,0.1-0.2,0.2-0.5,0.5c-0.2,0.3-0.1,0.5-0.1,0.8
							c0.2,0.5,0.1,0.7-0.6,0.7c-0.7,0.1-1.1,0.2-1.7-0.2c-0.3-0.2-0.5-0.3-0.9-0.3c-0.3,0.1-0.5,0.2-0.9,0.2
							c-0.3,0.1-0.4,0.1-0.7,0.1c-0.2-0.1-0.2-0.2-0.4-0.2c-0.2-0.1-0.2-0.2-0.2-0.2c0.1-0.1,0.4,0.1,0.5-0.3
							c-0.2-0.1-0.2-0.1-0.3-0.2c-0.1-0.1-0.2-0.1-0.3-0.2c0.1-0.1,0.2-0.2,0.3-0.2c0-0.1,0.2-0.2,0.1-0.4c-0.1,0-0.3,0-0.3,0
							c0.1-0.2,0.2-0.2,0.4-0.3c0.1-0.1,0.2-0.2,0.2-0.2c0.3-0.2,0.4-0.1,0.5,0c0.2,0.1,0.3,0.2,0.5,0.3c0.2,0.2,0.3,0.3,0.5,0.5
							c0.4,0.5,1.1,0.5,1.7,0.5c0.5,0.1,0.4-0.3,0.3-0.4c-0.1,0.1-0.2,0.2-0.2,0.2c0.1-0.2,0.1-0.5,0-0.7c-0.1,0.1-0.2,0.2-0.4,0.2
							c0.1-0.3,0.2-0.6,0.1-0.8c0-0.5,0.1-0.6,0.1-0.9c-0.2,0-0.4-0.1-0.6-0.2c-0.4-0.1-0.7,0.1-0.9,0.2c0.2-0.2,0.3-0.5,0.4-0.6
							c0.1-0.2,0.4-0.7,1.1-0.6c0.3,0.1,0.6,0.2,1.1-0.1c0.6-0.2,0.9,0,1.7,0.9c0.4,0.4,0.5,0.2,1.4,0.4c-0.5-0.9-1.6-0.9-2.1-3.3
							c-0.2,0-0.1,0.5-0.2,0.7c-0.2,0.3-0.6,0.5-0.7,0.6c0-0.1,0.1-0.5,0-0.5c0,0,0,0.1-0.3,0.1c-0.3,0-0.8,0-1.3,0.5
							c-0.1,0.1-0.5,0.3-0.7,0.9c-0.1-0.1-0.1-0.2-0.1-0.3c-0.3,0.2-0.3,0.4-0.4,0.6c-0.1,0.1-0.1,0.3-0.2,0.4
							c-0.1,0.5-0.3,0.5-0.6,0.5c-0.2,0.1-0.2,0.1-0.4,0.2c0-0.2,0.1-0.2,0.2-0.4c0-0.1,0-0.1-0.2-0.1c-0.2,0-0.4,0.1-0.6,0.1
							c0.1-0.2,0.3-0.6,0.1-0.7c-0.1-0.1-0.2,0-0.5-0.2c0.1-0.2,0-0.4,0.2-0.6c0-0.1-0.1-0.2-0.1-0.2c-0.1,0-0.2,0-0.2,0
							c0.1-0.1,0.1-0.2,0.2-0.3c0.3-0.3,0.5-0.2,0.7-0.2c0.4,0.3,0.6,0.1,0.9,0.1c1-0.5,1.2-0.6,1.8-1.4c0.2-0.2,0.6-0.5,0.5-0.8
							c-0.1,0-0.2,0.1-0.2,0.2c-0.5,0.8-1.4,1.1-2.2,1c0.4-0.3,0.8-0.4,1.1-0.9c0.2-0.4,0.4-0.6,0.8-0.7c0.2-0.1,0-0.2,0-0.2
							c-0.4-0.1-1.1-0.2-1.1-1.1c0-0.2-0.1-0.5-0.1-0.7c-0.2-0.6-0.4-0.9-0.7-1.3c-0.1-0.1-0.2-0.1-0.2,0c-0.1,0.1-0.1,0.2-0.1,0.3
							c-0.2-0.1,0-0.5-0.2-0.5c-0.1,0-0.1,0-0.2,0c-0.1,0.1-0.1,0.3-0.1,0.5c-0.2-0.2-0.2-0.4-0.2-0.5c-0.1,0-0.1,0-0.1,0
							c0,0.1,0,0.3,0,0.4c-0.2-0.1-0.2-0.2-0.2-0.3c-0.1-0.4-0.2-0.7,0.2-1.1c0.1-0.1,0.1-0.2,0.6-0.2c0.2-0.1,0.4-0.2,0.5,0
							c0.2,0,0.2-0.1,0.5,0c0.3,0.2,0.4,0.5,0.5,0.7c0.1,0.5,0.5,1.2,1.1,1.5c0.1-0.5,0.3-0.5,0.4-0.5c0.1,0.4,0.7,0.9,1.5,0.8
							c0-0.1,0.1-0.5,0.3-0.5c0.1,0.5,0.3,0.5,0.5,0.5c0.6,0.1,0.8,0.3,1,0.6c0.6,0.3,1,0,1.1-0.2c0.2-0.1,0.1-0.5-0.2-0.2
							c-0.1,0.1-0.6,0.2-0.8-0.2c0,0-0.2-0.4,0.2-0.5c0.2,0,0.2-0.2,0.3-0.2c0,0.1,0,0.2,0,0.3c0.5,0.2,0.5-0.5,0.5-0.7
							c0-0.1-0.1-0.4-0.6-0.3c-0.2,0-0.2,0.3-0.2,0.2c-0.2-0.1-0.2-0.2-0.4-0.2c-0.2-0.1-0.4-0.1-0.5-0.5c0-0.2,0-0.4,0-0.5
							c0-0.1,0-0.2,0.2-0.2c0.2-0.1,0.3-0.1,0.6-0.1c0.1-0.2,0.2-0.5,0.8-0.2c0.3,0,0.5,0,0.7,0c0.4,0,0.5,0,0.8,0.3
							c0.4,0.3,0.6,0.3,1,0.1c0.1,0.2,0.1,0.5-0.1,0.8c0.1,0.1,0.1,0.2,0.2,0.3c0.2,0.5,0.5,0.4,0.7,0.2c0.1,0.3,0,0.8-0.4,0.9
							c0.2,0.5,0,0.9,0,1.1c-0.2,0.5,0,0.7,0.2,0.7c-0.2,0.5-0.8,0.3-0.8,0.1c0.1,0.3-0.2,0.5-0.2,0.6c-0.6,0.6-0.6,0.6-0.6,1.3
							c-0.2,0.1-0.5-0.1-0.6-0.2c-0.8,1.5,0.1,3.6,0.8,4.3c1.6,0,1.7-1.8,1.8-2.5c-0.2-0.9-0.2-1.7-0.2-2.6
							c-0.1-0.9-0.2-1.5,0.5-2.3c0.2-0.3,0.5-0.6,0.5-1.2c0.1-0.8,0.7-1.3,1-1.5C169.8,119.8,169.7,120.5,169.7,120.9z M148,119.9
							c0.5,0.4,0.2,1.1-0.2,1.1c-0.4,0.1-1.3-0.4-1.8-0.2c0.2-0.4,0.7-0.2,1.1-0.2C147.2,120.8,148.3,121.1,148,119.9z"/>
					</g>
					<g>
						<path fill="#FFFFFF" d="M153.7,50.8L153.7,50.8c0,0.9,1.1,0.3,2,0.1v8.8h1.1V49.5c-0.1,0-0.3,0.1-0.4,0.1l0,0
							c2.6-0.7,4.6-0.6,5.7-0.6l0,0c2.4,0.2,3.7,0.3,3.8,1c0.1,0.7-4-0.6-3.8,1.8c0.3,1.9,5.2-2.4,12.6-2.9c7.1-0.5,8-2.2,8.7-2.4
							c-8.9,0.3-7-1.3-13.2-0.5c4.2-1.5,10.6-1.6,13-4.5c-4.5,1.4-6.3,0.5-9.9,0.3c-2.7-0.5-3-0.3-7-0.1c-1-3.5-6.1-3.5-9.6-2.8
							v-2.2h-0.6h-0.5v2.5l0,0c-1.5,0.4-2.5,0.9-2.3,1.2C153.8,42.1,154.3,45.1,153.7,50.8z M165.9,41.5l0.7,7l-0.7,0.6V41.5z
							 M157.2,46.5h-0.6V47h-0.5v-0.6h-0.6V46h0.6v-0.6h0.5V46h0.6V46.5z M162.2,46.5h-0.6V47h-0.5v-0.6h-0.6V46h0.6v-0.6h0.5V46
							h0.6V46.5z M160.6,41h0.6v-0.5h0.5V41h0.6v0.5h-0.6V42h-0.5v-0.6h-0.6V41z M156.2,39L156.2,39L156.2,39z M155.6,41h0.6v-0.5
							h0.5V41h0.6v0.5h-0.6V42h-0.5v-0.6h-0.6V41z M155.5,42.7h1.2v0.5h1.6v-1.7h-0.5v-1.2h2v1.2h-0.5v1.7h1.7v-0.5h1.2v2.1h-1.2
							v-0.5h-1.7v1.7h0.5v1.2h-2v-1.2h0.5v-1.7h-1.6v0.5h-1.2V42.7z"/>
					</g>
				</g>
			</g>
			<path fill="#FFFFFF" d="M132.8,138.7c0,0-2.1,1.9-3.4,2c0,0-2,4-6.2,4c-4.3,0-6.1-3.6-6.1-3.6v-1.7c0,0-3.7,1.4-8.2-2.7v2.7
				c0,0,2.2,2.8,7.5,2.8c0,0,0.4,5.2,6.8,5.2c6.4,0,6.6-4.4,6.6-4.4s1.2,0.6,3-0.9v1.7v0c0,0,8.1,10.8,22.5,10.8
				c14.4,0,22.7-10.8,22.7-10.8v-1.7c1.7,1.5,2.9,0.9,2.9,0.9s0.3,4.4,6.6,4.4c6.4,0,6.8-5.2,6.8-5.2c5.3,0,7.5-2.8,7.5-2.8v-2.7
				c-4.4,4.1-8.2,2.7-8.2,2.7v1.7c0,0-1.9,3.6-6.1,3.6c-4.3,0-6.2-4-6.2-4c-1.3-0.1-3.6-2-3.6-2s-6.9,12.1-22.5,12.1
				C139.7,150.8,132.8,138.7,132.8,138.7z"/>
			<path fill="#FFFFFF" d="M183.3,47.9c0,0-2.5,1.9-7.8,2.1c-5.2,0.2-10.5,2.9-10.5,2.9s-4.3,2.4-4-2.6c0,0-0.6-0.1-3,0.2v4.8
				c0,0,2.7-0.5,2.9-0.3c0,0-0.3,4.2,2.8,3.1c3-1.1,6.9-2.8,9.5-3c2.6-0.1,6.6-0.6,10.2-2.4L183.3,47.9z"/>
			<path fill="#FFFFFF" d="M183.2,42.7c0,0-1,1.5-5.3,2.5c0,0,3.9,0.1,5.4,0.1L183.2,42.7z"/>
			<path fill="#FFFFFF" d="M200.7,117c0,0,0.1,3.1-3.9,5.3c0,0,0.6,1.4,0.2,4.1C196.9,126.5,201.1,124.8,200.7,117z"/>
			<path fill="#FFFFFF" d="M110,117c0,0-0.1,3.1,3.9,5.3c0,0-0.6,1.4-0.2,4.1C113.7,126.5,109.6,124.8,110,117z"/>
		</g>
	</g>
</g>
</svg>
